<svg width="58" height="45" viewBox="0 0 58 45" fill="none" xmlns="http://www.w3.org/2000/svg">
<path d="M48.8886 3.91784C45.2205 2.20163 41.2984 0.954351 37.1979 0.244141C36.6943 1.1546 36.106 2.3792 35.7003 3.35336C31.3414 2.69783 27.0226 2.69783 22.7439 3.35336C22.3383 2.3792 21.7366 1.1546 21.2285 0.244141C17.1236 0.954351 13.197 2.20621 9.52891 3.92693C2.13029 15.1072 0.124653 26.0098 1.12748 36.7575C6.03463 40.4221 10.7902 42.6482 15.4656 44.1049C16.62 42.5161 17.6495 40.8273 18.5365 39.0473C16.8473 38.4055 15.2294 37.6134 13.7007 36.6939C14.1062 36.3934 14.5029 36.0793 14.8862 35.756C24.2102 40.1171 34.341 40.1171 43.5536 35.756C43.9414 36.0793 44.338 36.3934 44.7391 36.6939C43.2059 37.6179 41.5836 38.41 39.8944 39.0519C40.7813 40.8273 41.8065 42.5207 42.9653 44.1094C47.6451 42.6527 52.4052 40.4267 57.3123 36.7575C58.489 24.2981 55.3022 13.4957 48.8886 3.91784ZM19.8067 30.1478C17.0077 30.1478 14.7124 27.5348 14.7124 24.3528C14.7124 21.1708 16.9587 18.5532 19.8067 18.5532C22.6548 18.5532 24.9501 21.1662 24.9011 24.3528C24.9055 27.5348 22.6548 30.1478 19.8067 30.1478ZM38.6331 30.1478C35.8341 30.1478 33.5387 27.5348 33.5387 24.3528C33.5387 21.1708 35.785 18.5532 38.6331 18.5532C41.4811 18.5532 43.7764 21.1662 43.7274 24.3528C43.7274 27.5348 41.4811 30.1478 38.6331 30.1478Z" fill="white"/>
</svg>
