<svg width="62" height="62" viewBox="0 0 62 62" fill="none" xmlns="http://www.w3.org/2000/svg">
<path d="M31 56C44.8071 56 56 44.8071 56 31C56 17.1929 44.8071 6 31 6C17.1929 6 6 17.1929 6 31C6 44.8071 17.1929 56 31 56Z" fill="white"/>
<path d="M33.9388 25.1066H35.5499V22.3007C35.2719 22.2625 34.316 22.1765 33.2028 22.1765C30.88 22.1765 29.2888 23.6375 29.2888 26.3228V28.7941H26.7256V31.9309H29.2888V39.8235H32.4315V31.9316H34.891L35.2815 28.7949H32.4307V26.6338C32.4315 25.7272 32.6756 25.1066 33.9388 25.1066Z" fill="black"/>
</svg>
