<svg width="53" height="51" viewBox="0 0 53 51" fill="none" xmlns="http://www.w3.org/2000/svg">
<rect x="0.168457" width="52.66" height="50.4246" rx="10" fill="white"/>
<path d="M39.8238 31.303C39.8232 33.1253 39.2003 34.8928 38.0582 36.3128C36.9162 37.7328 35.3234 38.7202 33.5436 39.1116L32.6935 36.5611C33.472 36.4329 34.2123 36.1336 34.8612 35.6847C35.5101 35.2359 36.0513 34.6486 36.4459 33.9654H33.1612C32.4544 33.9654 31.7765 33.6846 31.2767 33.1848C30.7769 32.685 30.4961 32.0072 30.4961 31.3003V25.9703C30.4961 25.2634 30.7769 24.5856 31.2767 24.0858C31.7765 23.586 32.4544 23.3052 33.1612 23.3052H37.0761C36.751 20.7293 35.497 18.3606 33.5495 16.6435C31.602 14.9264 29.0949 13.979 26.4986 13.979C23.9022 13.979 21.3951 14.9264 19.4476 16.6435C17.5001 18.3606 16.2462 20.7293 15.921 23.3052H19.836C20.5428 23.3052 21.2206 23.586 21.7204 24.0858C22.2202 24.5856 22.501 25.2634 22.501 25.9703V31.3003C22.501 32.0072 22.2202 32.685 21.7204 33.1848C21.2206 33.6846 20.5428 33.9654 19.836 33.9654H15.8384C15.1316 33.9654 14.4537 33.6846 13.9539 33.1848C13.4541 32.685 13.1733 32.0072 13.1733 31.3003V24.6377C13.1733 17.2782 19.139 11.3125 26.4986 11.3125C33.8581 11.3125 39.8238 17.2782 39.8238 24.6377V31.303Z" fill="#181818"/>
</svg>
