<svg width="62" height="62" viewBox="0 0 62 62" fill="none" xmlns="http://www.w3.org/2000/svg">
<path d="M31 56C44.8071 56 56 44.8071 56 31C56 17.1929 44.8071 6 31 6C17.1929 6 6 17.1929 6 31C6 44.8071 17.1929 56 31 56Z" fill="white"/>
<path d="M38.3476 38.353V38.3524H38.3517V32.4196C38.3517 29.5172 37.7268 27.2815 34.3339 27.2815C32.7027 27.2815 31.6081 28.1766 31.1612 29.0252H31.114V27.5525H27.897V38.3524H31.2468V33.0046C31.2468 31.5966 31.5137 30.2352 33.2574 30.2352C34.9755 30.2352 35.0011 31.8419 35.0011 33.095V38.353H38.3476Z" fill="black"/>
<path d="M22.4424 27.5531H25.7964V38.3529H22.4424V27.5531Z" fill="black"/>
<path d="M24.1178 22.1765C23.0454 22.1765 22.1753 23.0466 22.1753 24.119C22.1753 25.1913 23.0454 26.0797 24.1178 26.0797C25.1901 26.0797 26.0603 25.1913 26.0603 24.119C26.0597 23.0466 25.1896 22.1765 24.1178 22.1765Z" fill="black"/>
</svg>
