<svg width="62" height="62" viewBox="0 0 62 62" fill="none" xmlns="http://www.w3.org/2000/svg">
<path d="M31 56C44.8071 56 56 44.8071 56 31C56 17.1929 44.8071 6 31 6C17.1929 6 6 17.1929 6 31C6 44.8071 17.1929 56 31 56Z" fill="white"/>
<path d="M36.1199 20.7059H27.3522C24.4987 20.7059 22.1772 23.0273 22.1772 25.8809V34.6487C22.1772 37.502 24.4987 39.8235 27.3522 39.8235H36.12C38.9734 39.8235 41.2949 37.502 41.2949 34.6487V25.8809C41.2949 23.0273 38.9734 20.7059 36.1199 20.7059ZM40.1742 34.6487C40.1742 36.8841 38.3555 38.7028 36.1199 38.7028H27.3522C25.1167 38.7028 23.298 36.8841 23.298 34.6487V25.8809C23.298 23.6453 25.1167 21.8266 27.3522 21.8266H36.12C38.3555 21.8266 40.1742 23.6453 40.1742 25.8809V34.6487Z" fill="black"/>
<path d="M31.7352 25.0374C28.8528 25.0374 26.5078 27.3824 26.5078 30.2647C26.5078 33.1471 28.8528 35.4921 31.7352 35.4921C34.6175 35.4921 36.9625 33.1471 36.9625 30.2647C36.9625 27.3824 34.6175 25.0374 31.7352 25.0374ZM31.7352 34.3714C29.4709 34.3714 27.6285 32.5291 27.6285 30.2647C27.6285 28.0005 29.4709 26.1581 31.7352 26.1581C33.9996 26.1581 35.8418 28.0005 35.8418 30.2647C35.8418 32.5291 33.9996 34.3714 31.7352 34.3714Z" fill="black"/>
<path d="M37.087 23.1809C36.2353 23.1809 35.5425 23.874 35.5425 24.7256C35.5425 25.5773 36.2353 26.2703 37.087 26.2703C37.939 26.2703 38.6319 25.5773 38.6319 24.7256C38.6319 23.8738 37.939 23.1809 37.087 23.1809ZM37.087 25.1494C36.8535 25.1494 36.6632 24.9592 36.6632 24.7256C36.6632 24.4917 36.8535 24.3017 37.087 24.3017C37.3209 24.3017 37.5112 24.4917 37.5112 24.7256C37.5112 24.9592 37.3209 25.1494 37.087 25.1494Z" fill="black"/>
</svg>
