<svg width="62" height="62" viewBox="0 0 62 62" fill="none" xmlns="http://www.w3.org/2000/svg">
<path d="M31 56C44.8071 56 56 44.8071 56 31C56 17.1929 44.8071 6 31 6C17.1929 6 6 17.1929 6 31C6 44.8071 17.1929 56 31 56Z" fill="white"/>
<path d="M39.8247 25.8076C39.1138 26.1194 38.3562 26.3262 37.5664 26.4266C38.3789 25.9415 38.9991 25.1791 39.2906 24.2603C38.5331 24.7119 37.6966 25.031 36.8053 25.209C36.086 24.4431 35.0609 23.9688 33.9425 23.9688C31.7726 23.9688 30.0257 25.73 30.0257 27.8891C30.0257 28.1997 30.052 28.4984 30.1164 28.7828C26.8582 28.6238 23.975 27.0622 22.0381 24.6832C21.7 25.27 21.5016 25.9415 21.5016 26.6644C21.5016 28.0218 22.2006 29.2248 23.2425 29.9215C22.6128 29.9095 21.9951 29.7268 21.4717 29.4388C21.4717 29.4507 21.4717 29.4663 21.4717 29.4818C21.4717 31.3863 22.8303 32.9684 24.6117 33.3328C24.2928 33.42 23.9451 33.4619 23.5842 33.4619C23.3334 33.4619 23.08 33.4475 22.8422 33.395C23.35 34.947 24.791 36.0881 26.5045 36.1251C25.171 37.1682 23.4779 37.7968 21.645 37.7968C21.3236 37.7968 21.0153 37.7825 20.707 37.7429C22.4432 38.8626 24.5007 39.5018 26.7195 39.5018C33.9317 39.5018 37.8747 33.5276 37.8747 28.3491C37.8747 28.1759 37.8686 28.0085 37.8604 27.8425C38.6382 27.2904 39.2917 26.601 39.8247 25.8076Z" fill="black"/>
</svg>
