<svg width="35" height="35" viewBox="0 0 35 35" fill="none" xmlns="http://www.w3.org/2000/svg">
<path d="M17.2 9.83783C19.9235 9.83783 20.2461 9.84823 21.3217 9.89731C22.3162 9.94265 22.8562 10.1088 23.2157 10.2485C23.6918 10.4335 24.0316 10.6546 24.3885 11.0115C24.7454 11.3684 24.9664 11.7082 25.1515 12.1843C25.2912 12.5437 25.4573 13.0838 25.5027 14.0783C25.5518 15.1538 25.5622 15.4765 25.5622 18.1999C25.5622 20.9235 25.5518 21.2461 25.5027 22.3216C25.4573 23.3161 25.2912 23.8562 25.1515 24.2156C24.9664 24.6917 24.7454 25.0315 24.3885 25.3884C24.0316 25.7454 23.6918 25.9664 23.2157 26.1514C22.8562 26.2911 22.3162 26.4573 21.3217 26.5026C20.2463 26.5517 19.9237 26.5621 17.2 26.5621C14.4763 26.5621 14.1538 26.5517 13.0783 26.5026C12.0838 26.4573 11.5438 26.2911 11.1843 26.1514C10.7082 25.9664 10.3684 25.7454 10.0115 25.3884C9.65462 25.0315 9.43355 24.6917 9.24851 24.2156C9.10883 23.8562 8.94266 23.3161 8.89731 22.3216C8.84824 21.2461 8.83783 20.9235 8.83783 18.1999C8.83783 15.4765 8.84824 15.1538 8.89731 14.0783C8.94266 13.0838 9.10883 12.5437 9.24851 12.1843C9.43355 11.7082 9.65458 11.3684 10.0115 11.0115C10.3684 10.6546 10.7082 10.4335 11.1843 10.2485C11.5438 10.1088 12.0838 9.94265 13.0783 9.89731C14.1539 9.84823 14.4765 9.83783 17.2 9.83783ZM17.2 8C14.4298 8 14.0825 8.01174 12.9946 8.06138C11.9089 8.1109 11.1674 8.28334 10.5186 8.53546C9.84787 8.79613 9.27904 9.1449 8.71195 9.71195C8.14491 10.279 7.79613 10.8479 7.53551 11.5186C7.28334 12.1674 7.1109 12.9089 7.06138 13.9945C7.01174 15.0825 7 15.4298 7 18.1999C7 20.9701 7.01174 21.3175 7.06138 22.4054C7.1109 23.4911 7.28334 24.2325 7.53551 24.8813C7.79613 25.5521 8.14491 26.1209 8.71195 26.688C9.27904 27.255 9.84787 27.6038 10.5186 27.8644C11.1674 28.1166 11.9089 28.289 12.9946 28.3385C14.0825 28.3882 14.4298 28.3999 17.2 28.3999C19.9702 28.3999 20.3175 28.3882 21.4054 28.3385C22.4911 28.289 23.2326 28.1166 23.8814 27.8644C24.5521 27.6038 25.121 27.255 25.688 26.688C26.2551 26.1209 26.6039 25.5521 26.8645 24.8813C27.1167 24.2325 27.2891 23.4911 27.3386 22.4054C27.3883 21.3175 27.4 20.9701 27.4 18.1999C27.4 15.4298 27.3883 15.0825 27.3386 13.9945C27.2891 12.9089 27.1167 12.1674 26.8645 11.5186C26.6039 10.8479 26.2551 10.279 25.688 9.71195C25.121 9.1449 24.5521 8.79613 23.8814 8.53546C23.2326 8.28334 22.4911 8.1109 21.4054 8.06138C20.3175 8.01174 19.9702 8 17.2 8Z" fill="black"/>
<path d="M17.2047 12.9669C14.3119 12.9669 11.9669 15.3119 11.9669 18.2047C11.9669 21.0975 14.3119 23.4425 17.2047 23.4425C20.0975 23.4425 22.4426 21.0975 22.4426 18.2047C22.4426 15.3119 20.0975 12.9669 17.2047 12.9669ZM17.2047 21.6047C15.3269 21.6047 13.8047 20.0824 13.8047 18.2047C13.8047 16.3269 15.3269 14.8047 17.2047 14.8047C19.0825 14.8047 20.6047 16.3269 20.6047 18.2047C20.6047 20.0824 19.0825 21.6047 17.2047 21.6047Z" fill="black"/>
<path d="M23.8732 12.7567C23.8732 13.4327 23.3252 13.9807 22.6492 13.9807C21.9732 13.9807 21.4252 13.4327 21.4252 12.7567C21.4252 12.0807 21.9732 11.5327 22.6492 11.5327C23.3252 11.5327 23.8732 12.0807 23.8732 12.7567Z" fill="black"/>
</svg>
