<svg width="35" height="35" viewBox="0 0 35 35" fill="none" xmlns="http://www.w3.org/2000/svg">
<path fill-rule="evenodd" clip-rule="evenodd" d="M12.0585 10.9413C12.0585 11.9996 11.2527 12.8561 9.99253 12.8561C8.78145 12.8561 7.97562 11.9996 8.00056 10.9413C7.97562 9.83154 8.78143 9 10.0167 9C11.2527 9 12.0344 9.83154 12.0585 10.9413ZM8.10188 26.6962V14.3688H11.9331V26.6954H8.10188V26.6962Z" fill="black"/>
<path fill-rule="evenodd" clip-rule="evenodd" d="M15.0038 18.303C15.0038 16.7653 14.9531 15.4545 14.9025 14.3705H18.2302L18.4071 16.0593H18.4827C18.9869 15.2776 20.2471 14.0938 22.289 14.0938C24.8093 14.0938 26.7 15.7577 26.7 19.3862V26.6979H22.8688V19.8663C22.8688 18.2772 22.3147 17.194 20.9282 17.194C19.8691 17.194 19.2394 17.925 18.9877 18.6303C18.8864 18.8828 18.8365 19.235 18.8365 19.5888V26.6979H15.0053V18.303H15.0038Z" fill="black"/>
</svg>
