<svg width="35" height="35" viewBox="0 0 35 35" fill="none" xmlns="http://www.w3.org/2000/svg">
<path fill-rule="evenodd" clip-rule="evenodd" d="M27.4 11.9623C26.65 12.2955 25.8429 12.5199 24.9964 12.6212C25.8606 12.1031 26.5242 11.2831 26.8363 10.306C26.0285 10.786 25.1317 11.1335 24.1791 11.3218C23.4155 10.5086 22.3269 10 21.124 10C18.8128 10 16.9389 11.874 16.9389 14.1851C16.9389 14.5129 16.9763 14.8324 17.0477 15.1391C13.569 14.965 10.4854 13.2985 8.42111 10.7663C8.06073 11.3844 7.8547 12.1031 7.8547 12.8701C7.8547 14.3218 8.59245 15.6028 9.71642 16.3535C9.02966 16.3317 8.38507 16.1434 7.82002 15.8299V15.8823C7.82002 17.9106 9.26357 19.6016 11.177 19.9872C10.8261 20.0824 10.4562 20.134 10.0748 20.134C9.80481 20.134 9.54235 20.1075 9.28669 20.0586C9.81909 21.7211 11.3653 22.9314 13.1964 22.9654C11.7644 24.0873 9.95984 24.7571 7.99885 24.7571C7.66023 24.7571 7.32706 24.7373 7 24.6979C8.8522 25.8851 11.0518 26.5787 13.4154 26.5787C21.1131 26.5787 25.3227 20.2014 25.3227 14.6713C25.3227 14.4897 25.3193 14.3089 25.3105 14.13C26.1292 13.5385 26.839 12.8014 27.4 11.9623Z" fill="black"/>
</svg>
