<svg width="25" height="25" viewBox="0 0 25 25" fill="none" xmlns="http://www.w3.org/2000/svg">
<path fill-rule="evenodd" clip-rule="evenodd" d="M12.5 0C5.59644 0 0 5.59644 0 12.5C0 19.4036 5.59644 25 12.5 25C19.4036 25 25 19.4036 25 12.5C25 5.59644 19.4036 0 12.5 0ZM17.8842 9.7239H14.3533V8.7123H17.8842V9.7239ZM17.5729 10.5731C17.148 10.3852 16.6706 10.2908 16.1399 10.2908C15.247 10.2908 14.5218 10.57 13.9613 11.1245C13.4023 11.6806 13.1225 12.4795 13.1225 13.5213C13.1225 14.6319 13.4313 15.4346 14.053 15.9273C14.6716 16.4207 15.3873 16.6667 16.1987 16.6667C17.181 16.6667 17.9453 16.3743 18.4909 15.7904C18.8406 15.4223 19.0381 15.0596 19.0813 14.7038H17.4546C17.3605 14.8801 17.2507 15.0178 17.1261 15.1176C16.8995 15.3009 16.604 15.3929 16.2426 15.3929C15.8992 15.3929 15.6068 15.3171 15.3638 15.1663C14.9624 14.9242 14.7523 14.5012 14.7256 13.8987H19.1651C19.1722 13.3797 19.1549 12.9807 19.1118 12.7053C19.0381 12.2343 18.8766 11.8198 18.625 11.4625C18.349 11.0572 17.9986 10.7602 17.5729 10.5731ZM9.815 8.33333C10.82 8.34803 11.5311 8.63651 11.9505 9.19954C12.2021 9.54524 12.3283 9.95824 12.3283 10.4401C12.3283 10.9358 12.2021 11.3357 11.9473 11.6373C11.8047 11.8059 11.5953 11.9606 11.3186 12.0998C11.7388 12.2514 12.0555 12.4903 12.2711 12.8175C12.4843 13.1439 12.5917 13.5414 12.5917 14.0085C12.5917 14.4903 12.4694 14.9227 12.2241 15.3047C12.0688 15.5576 11.8744 15.7711 11.6408 15.9443C11.3782 16.1431 11.0685 16.2784 10.7103 16.3527C10.352 16.4261 9.96473 16.4617 9.54611 16.4617H5.83333V8.33333H9.815Z" fill="black"/>
<path fill-rule="evenodd" clip-rule="evenodd" d="M7.47559 9.74463H9.26926C9.66358 9.74463 9.98814 9.78717 10.2437 9.87147C10.5385 9.99366 10.6858 10.2435 10.6858 10.6232C10.6858 10.9635 10.5737 11.2017 10.3511 11.3363C10.1269 11.4708 9.83605 11.5381 9.47935 11.5381H7.47559V9.74463ZM15.1896 11.931C15.4146 11.7021 15.7329 11.5876 16.1406 11.5876C16.5168 11.5876 16.8312 11.6951 17.0868 11.9109C17.3392 12.1282 17.4819 12.4438 17.5109 12.8614H14.7647C14.8227 12.4701 14.9646 12.1599 15.1896 11.931ZM9.50444 12.8831H7.47559V15.0509H9.47622C9.8337 15.0509 10.1128 15.0029 10.3111 14.9078C10.6725 14.7299 10.8528 14.3927 10.8528 13.8931C10.8528 13.4693 10.6788 13.1793 10.3284 13.0207C10.1324 12.9326 9.85722 12.8862 9.50444 12.8831Z" fill="black"/>
</svg>
