<svg width="25" height="25" viewBox="0 0 25 25" fill="none" xmlns="http://www.w3.org/2000/svg">
<path d="M12.5228 0.09375C5.63288 0.09375 0.0458984 5.77495 0.0458984 12.7836C0.0458984 18.3904 3.6209 23.1472 8.57834 24.8252C9.20189 24.9427 9.43082 24.5499 9.43082 24.2147C9.43082 23.9121 9.41925 22.9125 9.41387 21.8521C5.9428 22.6198 5.21036 20.3548 5.21036 20.3548C4.6428 18.888 3.82503 18.498 3.82503 18.498C2.69301 17.7104 3.91036 17.7266 3.91036 17.7266C5.16325 17.8159 5.82296 19.0343 5.82296 19.0343C6.93577 20.9743 8.74177 20.4135 9.45375 20.0892C9.56573 19.2692 9.88908 18.709 10.2459 18.3923C7.47462 18.0714 4.56139 16.9833 4.56139 12.1208C4.56139 10.7354 5.04879 9.60332 5.84693 8.71463C5.71739 8.39479 5.29032 7.10431 5.9678 5.35635C5.9678 5.35635 7.01553 5.01529 9.39982 6.65713C10.3951 6.37596 11.4624 6.23495 12.5228 6.23012C13.5831 6.23495 14.6513 6.37596 15.6484 6.65713C18.0298 5.01529 19.0761 5.35635 19.0761 5.35635C19.7552 7.10431 19.3279 8.39479 19.1984 8.71463C19.9984 9.60332 20.4825 10.7354 20.4825 12.1208C20.4825 16.9949 17.5637 18.0681 14.7854 18.3822C15.2329 18.776 15.6316 19.5483 15.6316 20.7323C15.6316 22.43 15.6172 23.7966 15.6172 24.2147C15.6172 24.5524 15.8418 24.9481 16.4742 24.8235C21.429 23.1436 24.9994 18.3885 24.9994 12.7836C24.9994 5.77495 19.4133 0.09375 12.5228 0.09375" fill="black"/>
<path d="M4.77165 18.3138C4.74417 18.377 4.64665 18.3957 4.5578 18.3524C4.46731 18.311 4.41648 18.2251 4.44582 18.1618C4.47268 18.0969 4.57041 18.079 4.6607 18.1221C4.7514 18.1637 4.80305 18.2505 4.77165 18.3138" fill="black"/>
<path d="M5.27677 18.887C5.21726 18.9431 5.10094 18.9171 5.02201 18.8284C4.9404 18.7399 4.92511 18.6216 4.98544 18.5647C5.04681 18.5086 5.15962 18.5348 5.24144 18.6233C5.32305 18.7128 5.33896 18.8303 5.27677 18.887" fill="black"/>
<path d="M5.76895 19.6177C5.69251 19.6717 5.56751 19.621 5.49024 19.5082C5.41379 19.3953 5.41379 19.26 5.49189 19.2058C5.56937 19.1516 5.69251 19.2003 5.77081 19.3123C5.84705 19.4269 5.84705 19.5624 5.76895 19.6177" fill="black"/>
<path d="M6.44273 20.3241C6.37434 20.4008 6.22868 20.3802 6.12207 20.2756C6.01297 20.1732 5.9826 20.028 6.0512 19.9513C6.12041 19.8744 6.2669 19.896 6.37434 19.9999C6.4826 20.102 6.51566 20.2482 6.44273 20.3241" fill="black"/>
<path d="M7.37249 20.7337C7.34233 20.8331 7.20204 20.8783 7.06071 20.8361C6.9196 20.7926 6.82724 20.6761 6.85576 20.5757C6.88509 20.4757 7.026 20.4286 7.16836 20.4738C7.30927 20.5171 7.40183 20.6326 7.37249 20.7337" fill="black"/>
<path d="M8.39358 20.8102C8.39709 20.9149 8.27726 21.0017 8.12891 21.0033C7.97974 21.0069 7.85907 20.9222 7.85742 20.8192C7.85742 20.7135 7.97457 20.6276 8.12374 20.6251C8.27209 20.6221 8.39358 20.7062 8.39358 20.8102" fill="black"/>
<path d="M9.34397 20.6456C9.36174 20.7477 9.25864 20.8526 9.11133 20.8803C8.9665 20.9074 8.83241 20.8444 8.81402 20.7431C8.79604 20.6384 8.901 20.5336 9.04563 20.5065C9.19315 20.4804 9.32517 20.5418 9.34397 20.6456" fill="black"/>
</svg>
