<svg width="25" height="25" viewBox="0 0 25 25" fill="none" xmlns="http://www.w3.org/2000/svg">
<path fill-rule="evenodd" clip-rule="evenodd" d="M12.5 0C5.59644 0 0 5.59644 0 12.5C0 19.4036 5.59644 25 12.5 25C19.4036 25 25 19.4036 25 12.5C25 5.59644 19.4036 0 12.5 0ZM9.75171 5.87361C10.4628 5.84125 10.6901 5.83333 12.5006 5.83333H12.4985C14.3097 5.83333 14.5361 5.84125 15.2472 5.87361C15.9569 5.90611 16.4416 6.01847 16.8666 6.18334C17.3055 6.35348 17.6764 6.58126 18.0472 6.9521C18.418 7.32265 18.6458 7.6946 18.8167 8.13308C18.9806 8.55697 19.0931 9.04142 19.1264 9.75115C19.1583 10.4623 19.1667 10.6895 19.1667 12.5001C19.1667 14.3106 19.1583 14.5373 19.1264 15.2484C19.0931 15.9579 18.9806 16.4425 18.8167 16.8665C18.6458 17.3048 18.418 17.6768 18.0472 18.0473C17.6768 18.4182 17.3054 18.6465 16.8671 18.8168C16.4429 18.9817 15.9579 19.094 15.2482 19.1265C14.537 19.1589 14.3105 19.1668 12.4998 19.1668C10.6894 19.1668 10.4623 19.1589 9.75115 19.1265C9.04156 19.094 8.55697 18.9817 8.1328 18.8168C7.6946 18.6465 7.32265 18.4182 6.95223 18.0473C6.58154 17.6768 6.35376 17.3048 6.18334 16.8664C6.01861 16.4425 5.90625 15.958 5.87361 15.2483C5.84139 14.5372 5.83333 14.3106 5.83333 12.5001C5.83333 10.6895 5.84167 10.4621 5.87347 9.75101C5.90542 9.04156 6.01792 8.55697 6.1832 8.13294C6.35403 7.6946 6.58181 7.32265 6.95265 6.9521C7.32321 6.5814 7.69516 6.35362 8.13364 6.18334C8.55753 6.01847 9.04198 5.90611 9.75171 5.87361Z" fill="black"/>
<path fill-rule="evenodd" clip-rule="evenodd" d="M11.9024 7.03487C12.0186 7.03469 12.1435 7.03474 12.2783 7.0348L12.5005 7.03487C14.2805 7.03487 14.4915 7.04126 15.1944 7.0732C15.8444 7.10293 16.1972 7.21154 16.4322 7.30279C16.7433 7.42362 16.9651 7.56807 17.1983 7.80141C17.4317 8.03474 17.5761 8.25697 17.6972 8.56808C17.7885 8.80281 17.8972 9.15559 17.9268 9.80559C17.9587 10.5084 17.9657 10.7195 17.9657 12.4987C17.9657 14.2779 17.9587 14.489 17.9268 15.1918C17.8971 15.8418 17.7885 16.1945 17.6972 16.4293C17.5764 16.7404 17.4317 16.9619 17.1983 17.1951C16.965 17.4285 16.7435 17.5729 16.4322 17.6937C16.1975 17.7854 15.8444 17.8937 15.1944 17.9235C14.4916 17.9554 14.2805 17.9623 12.5005 17.9623C10.7203 17.9623 10.5094 17.9554 9.80657 17.9235C9.15657 17.8935 8.80379 17.7848 8.56864 17.6936C8.25753 17.5728 8.03531 17.4283 7.80197 17.195C7.56863 16.9616 7.42419 16.74 7.30308 16.4287C7.21182 16.194 7.10307 15.8412 7.07349 15.1912C7.04155 14.4884 7.03516 14.2773 7.03516 12.497C7.03516 10.7167 7.04155 10.5067 7.07349 9.80393C7.10321 9.15392 7.21182 8.80114 7.30308 8.56614C7.42391 8.25502 7.56863 8.0328 7.80197 7.79946C8.03531 7.56613 8.25753 7.42168 8.56864 7.30057C8.80365 7.2089 9.15657 7.10056 9.80657 7.0707C10.4216 7.04293 10.6599 7.03459 11.9024 7.0332V7.03487ZM16.0591 8.14183C15.6175 8.14183 15.2591 8.49975 15.2591 8.94156C15.2591 9.38323 15.6175 9.74156 16.0591 9.74156C16.5008 9.74156 16.8591 9.38323 16.8591 8.94156C16.8591 8.49989 16.5008 8.14155 16.0591 8.14155V8.14183ZM9.07684 12.5002C9.07684 10.6095 10.6097 9.07663 12.5004 9.07656C14.3911 9.07656 15.9236 10.6095 15.9236 12.5002C15.9236 14.3909 14.3912 15.9232 12.5005 15.9232C10.6098 15.9232 9.07684 14.3909 9.07684 12.5002Z" fill="black"/>
<path d="M12.5006 10.2778C13.7278 10.2778 14.7228 11.2727 14.7228 12.5001C14.7228 13.7273 13.7278 14.7223 12.5006 14.7223C11.2732 14.7223 10.2783 13.7273 10.2783 12.5001C10.2783 11.2727 11.2732 10.2778 12.5006 10.2778V10.2778Z" fill="black"/>
</svg>
