<?xml version="1.0" standalone="no"?>
<!DOCTYPE svg PUBLIC "-//W3C//DTD SVG 20010904//EN"
 "http://www.w3.org/TR/2001/REC-SVG-20010904/DTD/svg10.dtd">
<svg version="1.0" xmlns="http://www.w3.org/2000/svg"
 width="1536.000000pt" height="1536.000000pt" viewBox="0 0 1536.000000 1536.000000"
 preserveAspectRatio="xMidYMid meet">
<metadata>
Created by potrace 1.14, written by Peter Selinger 2001-2017
</metadata>
<g transform="translate(0.000000,1536.000000) scale(0.100000,-0.100000)"
fill="#000000" stroke="none">
<path d="M5595 12400 c44 -44 553 -554 1132 -1132 l1052 -1052 1618 -2 c890
-1 1636 -5 1658 -9 22 -3 58 -8 80 -10 22 -2 40 -4 40 -5 0 -1 14 -4 30 -6 28
-4 102 -18 150 -29 49 -10 175 -47 225 -66 84 -32 91 -35 149 -60 30 -13 59
-23 63 -22 4 2 8 -2 8 -7 0 -6 7 -10 15 -10 8 0 15 -5 15 -12 0 -6 3 -9 6 -5
7 6 46 -13 129 -63 28 -17 58 -33 68 -37 9 -3 17 -9 17 -14 0 -5 6 -9 13 -9 6
0 24 -10 39 -23 14 -12 57 -44 95 -72 97 -71 115 -87 241 -215 153 -155 152
-154 152 -168 0 -7 4 -12 8 -12 10 0 132 -167 132 -180 0 -6 5 -10 10 -10 6 0
10 -5 10 -10 0 -6 16 -35 35 -65 36 -57 137 -262 150 -305 4 -14 13 -38 20
-55 19 -43 62 -183 70 -230 4 -22 10 -44 14 -50 6 -11 8 -22 15 -70 3 -17 7
-42 11 -55 6 -25 10 -57 22 -185 12 -133 6 -406 -12 -494 -2 -12 -7 -44 -10
-69 -3 -26 -7 -54 -10 -62 -4 -15 -8 -32 -20 -95 -3 -16 -8 -37 -12 -45 -8
-19 -8 -18 -17 -60 -4 -19 -13 -51 -20 -70 -64 -169 -92 -236 -101 -242 -5 -4
-7 -8 -3 -8 7 0 -51 -116 -96 -190 -15 -25 -29 -53 -33 -62 -3 -10 -9 -18 -14
-18 -5 0 -13 -10 -18 -22 -9 -22 -125 -183 -162 -223 -38 -42 -217 -221 -245
-245 -106 -92 -258 -200 -354 -251 -25 -13 -47 -27 -50 -30 -3 -3 -34 -19 -70
-36 -159 -75 -177 -83 -207 -85 -7 -1 -13 -5 -13 -10 0 -4 -6 -8 -14 -8 -8 0
-27 -5 -43 -12 -15 -6 -31 -12 -35 -13 -5 -2 -9 -3 -10 -5 -2 -1 -10 -3 -19
-5 -9 -1 -41 -10 -71 -19 -30 -8 -66 -18 -79 -20 -13 -3 -24 -5 -24 -6 0 -1
-9 -3 -20 -4 -11 -2 -33 -6 -50 -9 -28 -6 -75 -14 -135 -23 -101 -14 -364 -17
-1653 -18 l-1458 -1 -1062 -1062 c-584 -584 -1093 -1093 -1131 -1132 l-68 -69
345 0 c190 0 350 -3 356 -6 6 -4 11 -4 11 1 0 10 52 9 68 -1 7 -4 12 -4 12 1
0 10 373 8 389 -1 6 -4 11 -4 11 1 0 10 52 9 68 -1 7 -4 12 -4 12 1 0 10 52 9
68 -1 7 -4 12 -4 12 1 0 10 52 9 68 -1 7 -4 12 -4 12 1 0 10 373 8 389 -1 6
-4 11 -4 11 1 0 10 52 9 68 -1 7 -4 12 -4 12 1 0 10 373 8 389 -1 6 -4 11 -4
11 1 0 10 52 9 68 -1 7 -4 12 -4 12 1 0 10 373 8 389 -1 6 -4 11 -4 11 1 0 10
52 9 68 -1 7 -4 12 -4 12 1 0 10 693 8 709 -1 6 -4 11 -4 11 1 0 10 52 9 68
-1 7 -4 12 -4 12 1 0 10 373 8 389 -1 6 -4 11 -4 11 1 0 10 52 9 68 -1 7 -4
12 -4 12 1 0 10 693 8 709 -1 6 -4 11 -4 11 1 0 10 52 9 68 -1 7 -4 12 -4 12
1 0 4 82 8 183 9 215 1 413 14 577 39 14 3 43 7 65 10 71 9 189 31 270 50 33
8 71 17 85 19 14 2 25 5 25 6 0 1 7 3 15 5 54 12 71 16 125 30 33 9 121 37
195 62 74 25 140 46 145 47 6 2 24 8 40 15 40 16 54 20 60 21 3 0 20 7 38 17
17 9 37 18 42 19 6 1 37 15 70 30 33 16 65 28 70 29 6 0 12 2 15 5 5 5 60 32
70 35 6 1 108 54 180 94 30 16 72 38 93 48 20 10 37 21 37 25 0 5 5 8 10 8 15
0 318 192 364 231 6 5 45 35 86 66 157 118 259 205 409 350 53 51 99 93 103
93 5 0 8 3 8 8 0 4 22 30 48 57 55 58 162 181 212 244 19 24 44 52 54 62 11
11 17 19 13 19 -4 0 1 8 11 18 9 10 26 31 37 46 11 16 26 34 33 41 6 8 12 16
12 20 0 3 5 11 10 18 39 46 50 61 50 68 0 4 6 14 13 21 25 28 78 108 70 108
-4 0 -3 4 3 8 14 9 134 207 134 220 0 6 4 12 9 14 9 3 201 389 205 411 1 6 4
17 8 22 18 29 116 295 145 392 10 35 22 63 26 63 5 0 6 4 3 9 -4 5 -2 21 4 35
5 15 12 37 14 49 3 12 13 49 22 82 16 60 20 76 29 117 2 13 10 46 16 73 7 28
13 59 14 70 1 11 5 27 9 36 4 9 6 20 5 25 -1 5 0 11 1 14 1 3 3 16 5 30 9 65
16 117 20 140 8 40 15 101 20 155 2 28 8 88 12 135 9 103 9 570 -1 695 -9 116
-11 134 -31 278 -3 20 -7 52 -9 70 -2 17 -7 43 -10 57 -3 14 -8 41 -11 60 -2
19 -7 46 -10 60 -3 14 -8 41 -11 60 -3 19 -8 39 -12 44 -3 5 -6 19 -8 30 -6
43 -16 83 -41 170 -14 48 -27 96 -28 105 -2 9 -4 17 -5 19 -2 1 -3 5 -4 10 -3
11 -27 85 -33 102 -4 8 -5 21 -4 28 1 6 -3 12 -9 12 -5 0 -10 7 -10 16 0 16
-53 164 -86 239 -10 22 -19 42 -19 45 -17 52 -210 448 -224 460 -6 5 -15 21
-58 99 -14 25 -32 53 -39 62 -8 8 -14 18 -14 22 0 6 -60 98 -69 107 -4 3 -12
17 -20 33 -8 15 -18 27 -23 27 -4 0 -8 7 -8 15 0 8 -4 15 -8 15 -5 0 -18 18
-31 40 -12 22 -28 45 -34 52 -7 7 -26 31 -42 53 -73 97 -171 213 -277 328 -16
17 -28 34 -28 39 0 5 -4 6 -10 3 -5 -3 -10 -2 -10 3 0 13 -228 235 -326 317
-26 22 -66 56 -89 75 -41 34 -52 43 -164 127 -31 23 -68 51 -83 63 -14 11 -31
20 -36 20 -6 0 -12 4 -14 9 -2 7 -107 78 -170 116 -234 140 -441 248 -613 320
-100 41 -142 58 -160 65 -11 4 -37 15 -58 24 -21 9 -42 14 -47 11 -4 -3 -10
-2 -12 2 -3 8 -123 53 -150 57 -7 1 -19 5 -25 9 -7 5 -13 6 -13 3 0 -3 -26 4
-57 15 -32 11 -59 20 -60 20 -2 0 -8 2 -15 4 -7 2 -24 6 -38 8 -14 2 -32 7
-40 10 -8 3 -26 8 -40 10 -14 3 -43 10 -65 16 -22 5 -53 12 -70 15 -16 2 -41
7 -55 11 -14 3 -40 8 -59 11 -18 3 -43 8 -55 10 -11 2 -39 7 -61 10 -22 2 -53
7 -70 10 -33 6 -50 8 -170 19 -44 4 -89 10 -100 13 -11 4 -1293 8 -2850 9
l-2830 4 80 -81z"/>
<path d="M4337 11884 c-1 -1 -22 -4 -47 -7 -25 -3 -58 -9 -75 -15 -108 -34
-81 -8 -2030 -1957 -1039 -1040 -1900 -1903 -1912 -1918 -13 -15 -25 -38 -29
-52 -3 -14 -10 -25 -15 -25 -5 0 -9 -8 -9 -18 0 -10 -3 -22 -7 -26 -7 -7 -12
-24 -18 -66 -1 -14 -4 -25 -5 -25 0 0 -2 -26 -3 -58 -1 -31 1 -57 5 -57 4 0 5
-9 3 -20 -2 -11 0 -22 6 -25 5 -4 9 -15 9 -27 0 -23 44 -110 75 -147 52 -63
3776 -3779 3811 -3803 49 -34 122 -65 166 -71 18 -3 35 -6 38 -7 10 -4 66 -1
115 5 28 4 56 7 63 8 6 0 12 4 12 7 0 4 12 10 28 13 15 3 49 20 75 38 48 31
3753 3728 3820 3811 90 112 120 256 82 403 -27 109 14 66 -1974 2054 -1993
1993 -1936 1938 -2046 1966 -36 8 -134 23 -138 19z"/>
</g>
</svg>
