<svg width="204" height="40" viewBox="0 0 204 40" fill="none" xmlns="http://www.w3.org/2000/svg">
<path d="M14.9861 2.40265C17.74 2.02348 20.5438 2.30694 23.1682 3.22986C25.7927 4.15277 28.1632 5.68893 30.0861 7.71274C32.009 9.73655 33.4297 12.1905 34.2318 14.8741C35.034 17.5576 35.195 20.3945 34.7016 23.1528L32.9683 22.8375C33.4124 20.3551 33.2675 17.8019 32.5455 15.3867C31.8236 12.9715 30.545 10.7629 28.8144 8.94146C27.0838 7.12004 24.9503 5.73749 22.5883 4.90687C20.2263 4.07625 17.7028 3.82113 15.2243 4.16238L14.9861 2.40265Z" fill="white"/>
<path d="M30.8351 19.6352C30.8351 27.0382 24.8838 33.0395 17.5425 33.0395C10.2013 33.0395 4.25 27.0382 4.25 19.6352C4.25 12.2323 10.2013 6.23099 17.5425 6.23099C24.8838 6.23099 30.8351 12.2323 30.8351 19.6352Z" fill="#1890FF"/>
<path d="M16.7201 17.3515C16.8751 17.3515 17.007 17.4062 17.1155 17.5157C17.2241 17.6252 17.2783 17.7581 17.2783 17.9145C17.2783 18.063 17.2279 18.1921 17.1271 18.3015C17.0263 18.4032 16.9062 18.4618 16.7666 18.4775H14.4288C14.1961 18.4931 14.0023 18.5517 13.8472 18.6534C13.6999 18.7472 13.5836 18.8645 13.4983 19.0052C13.413 19.146 13.3548 19.2985 13.3238 19.4627C13.2928 19.6269 13.2773 19.7754 13.2773 19.9084V21.9022C13.2773 22.0586 13.223 22.1915 13.1145 22.301C13.0059 22.4105 12.8741 22.4652 12.719 22.4652C12.5639 22.4652 12.4321 22.4105 12.3236 22.301C12.215 22.1915 12.1607 22.0586 12.1607 21.9022V19.9084C12.1607 19.666 12.1917 19.4236 12.2538 19.1812C12.3158 18.931 12.4088 18.6964 12.5329 18.4775H8.71795C8.56287 18.4775 8.43106 18.4227 8.3225 18.3133C8.21395 18.2038 8.15967 18.0709 8.15967 17.9145C8.15967 17.7581 8.21395 17.6252 8.3225 17.5157C8.43106 17.4062 8.56287 17.3515 8.71795 17.3515H16.7201Z" fill="white"/>
<path d="M17.4458 19.9084C17.4458 19.6112 17.4923 19.3141 17.5854 19.017C17.6862 18.712 17.8296 18.4384 18.0157 18.196C18.2018 17.9458 18.4267 17.7425 18.6903 17.5861C18.954 17.4297 19.2525 17.3515 19.5859 17.3515H26.3668C26.5218 17.3515 26.6537 17.4062 26.7622 17.5157C26.8708 17.6252 26.925 17.7581 26.925 17.9145C26.925 18.0709 26.8708 18.2038 26.7622 18.3133C26.6537 18.4227 26.5218 18.4775 26.3668 18.4775H19.8302C19.5588 18.4775 19.3378 18.5283 19.1672 18.6299C19.0044 18.7238 18.8725 18.841 18.7717 18.9818C18.6787 19.1225 18.6128 19.2789 18.574 19.4509C18.543 19.6151 18.5275 19.7676 18.5275 19.9084C18.5275 20.0491 18.543 20.2055 18.574 20.3775C18.6128 20.5417 18.6787 20.6942 18.7717 20.8349C18.8725 20.9757 19.0044 21.0969 19.1672 21.1985C19.3378 21.2923 19.5588 21.3393 19.8302 21.3393H26.3668C26.5218 21.3393 26.6537 21.394 26.7622 21.5035C26.8708 21.6129 26.925 21.7459 26.925 21.9022C26.925 22.0586 26.8708 22.1915 26.7622 22.301C26.6537 22.4105 26.5218 22.4652 26.3668 22.4652H19.4696C19.1517 22.4652 18.8687 22.387 18.6205 22.2306C18.3724 22.0743 18.1592 21.8749 17.9808 21.6325C17.8102 21.3823 17.6784 21.1047 17.5854 20.7997C17.4923 20.4948 17.4458 20.1977 17.4458 19.9084Z" fill="white"/>
<path d="M62.005 27.1428V16.7371H67.173V14.9371H55.052V16.7371H60.22V27.1428H62.005Z" fill="white"/>
<path d="M82.0221 27.1428L77.6701 22.0171H78.9791C80.6621 22.0171 82.0221 20.6457 82.0221 18.9486V18.0057C82.0221 16.3086 80.6621 14.9371 78.9791 14.9371H69.9011V16.7371H78.9791C79.6761 16.7371 80.2371 17.3028 80.2371 18.0057V18.9486C80.2371 19.6514 79.6761 20.2171 78.9791 20.2171H69.9011V27.1428H71.6861V22.0171H75.3241L79.6761 27.1428H82.0221Z" fill="white"/>
<path d="M96.7222 16.7371V14.9371H84.5842V16.7371H96.7222ZM96.7052 27.1428V25.3428H86.3692V22.0171H94.9202V20.2171H84.5842V27.1428H96.7052Z" fill="white"/>
<path d="M108.528 27.1428C110.194 27.1428 111.571 25.7714 111.571 24.0743V18.0057C111.571 16.3086 110.194 14.9371 108.528 14.9371H99.4499V27.1428H108.528ZM108.528 25.3428H101.235V16.7371H108.528C109.225 16.7371 109.786 17.3028 109.786 18.0057V24.0743C109.786 24.7771 109.225 25.3428 108.528 25.3428Z" fill="white"/>
<path d="M123.377 27.1428C125.026 27.1428 126.403 25.7886 126.403 24.1257V24.04H124.635C124.635 24.7771 124.074 25.36 123.377 25.36H117.342C116.645 25.36 116.084 24.7771 116.084 24.0743V18.0228C116.084 17.3028 116.645 16.7371 117.359 16.7371H123.377C124.074 16.7371 124.635 17.32 124.635 18.0228H126.403C126.403 16.3257 125.094 14.9371 123.377 14.9371H117.359C115.676 14.9371 114.299 16.3086 114.299 18.0057V24.0743C114.299 25.7714 115.659 27.1428 117.342 27.1428H123.377Z" fill="white"/>
<path d="M141.286 27.1428V14.9371H139.501V20.2171H130.95V14.9371H129.165V27.1428H130.95V22.0171H139.501V27.1428H141.286Z" fill="white"/>
<path d="M155.969 27.1428L150.801 14.9371H149.016L143.848 27.1428H145.786L147.316 23.5428H152.518L154.031 27.1428H155.969ZM151.855 22H147.962L149.917 17.4057L151.855 22Z" fill="white"/>
<path d="M170.652 27.1428L166.3 22.0171H167.609C169.292 22.0171 170.652 20.6457 170.652 18.9486V18.0057C170.652 16.3086 169.292 14.9371 167.609 14.9371H158.531V16.7371H167.609C168.306 16.7371 168.867 17.3028 168.867 18.0057V18.9486C168.867 19.6514 168.306 20.2171 167.609 20.2171H158.531V27.1428H160.316V22.0171H163.954L168.306 27.1428H170.652Z" fill="white"/>
<path d="M180.167 27.1428V16.7371H185.335V14.9371H173.214V16.7371H178.382V27.1428H180.167Z" fill="white"/>
<path d="M196.975 27.1428C198.658 27.1428 200.018 25.7714 200.018 24.0743V23.1314C200.018 21.4343 198.658 20.2171 196.975 20.2171H190.94C190.243 20.2171 189.682 19.6514 189.682 18.9486V18.0057C189.682 17.3028 190.26 16.7371 190.957 16.7371H196.992C197.689 16.7371 198.25 17.32 198.25 18.04H200.035V18.0228C200.035 16.3257 198.658 14.9371 196.992 14.9371H190.957C189.274 14.9371 187.897 16.3257 187.897 18.0057V18.9486C187.897 20.6457 189.257 22.0171 190.94 22.0171H196.975C197.672 22.0171 198.233 22.4286 198.233 23.1314V24.0743C198.233 24.7771 197.672 25.3428 196.975 25.3428H190.94C190.243 25.3428 189.682 24.76 189.682 24.04H187.897C187.897 25.7543 189.24 27.1428 190.94 27.1428H196.975Z" fill="white"/>
</svg>
