<svg width="457" height="130" viewBox="0 0 457 130" fill="none" xmlns="http://www.w3.org/2000/svg">
<path d="M26 55.5604C18.4528 59.334 5.66667 60.2271 1 60.0604V130H456.5V24.0604C453 24.0604 451.2 23.3604 440 14.5604C426 3.56042 420.5 2.06042 408 1.06042C395.5 0.0604226 388 11.5604 372 29.0604C356 46.5604 339 48.5604 323 48.5604C304.473 48.5604 288.5 55.0604 274 72.5604C262.4 86.5604 253.5 90.0604 250.5 90.0604C245.667 91.3938 232.9 86.2604 220.5 55.0604C205 16.0604 191.5 1.06043 167.5 1.56043C143.5 2.06043 131 21.5604 113 36.5604C95 51.5604 79.6177 49.0604 70 49.0604C61.5 49.0604 35 51.0604 26 55.5604Z" fill="url(#paint0_linear)" fill-opacity="0.4"/>
<path d="M1 60.5C5.66667 60.6667 18.4528 59.7736 26 56C35 51.5 61.5 49.5 70 49.5C79.6177 49.5 95 52 113 37C131 22 143.5 2.5 167.5 2C191.5 1.5 205 16.5 220.5 55.5C232.9 86.7 245.667 91.8333 250.5 90.5C253.5 90.5 262.4 87 274 73C288.5 55.5 304.473 49 323 49C339 49 356 47 372 29.5C388 12 395.5 0.499998 408 1.5C420.5 2.5 426 4 440 15C451.2 23.8 453 24.5 456.5 24.5" stroke="#A259FF" stroke-width="2.5"/>
<defs>
<linearGradient id="paint0_linear" x1="228.75" y1="1" x2="229" y2="124" gradientUnits="userSpaceOnUse">
<stop stop-color="#A259FF" stop-opacity="0.68"/>
<stop offset="1" stop-color="#A259FF" stop-opacity="0"/>
</linearGradient>
</defs>
</svg>
