<svg width="24" height="24" viewBox="0 0 24 24" fill="none" xmlns="http://www.w3.org/2000/svg">
<path d="M9.35738 16.2137C9.35738 14.8338 9.5209 13.7348 9.84795 12.9167C10.175 12.0986 10.7714 11.2953 11.6371 10.5067C12.5124 9.70833 13.0943 9.06272 13.3829 8.56989C13.6715 8.0672 13.8158 7.53987 13.8158 6.9879C13.8158 5.32213 13.0655 4.48925 11.5649 4.48925C10.8531 4.48925 10.2808 4.71595 9.84795 5.16935C9.42471 5.6129 9.20348 6.22894 9.18424 7.01747H5C5.01924 5.13486 5.6108 3.66129 6.77469 2.59677C7.94821 1.53226 9.54495 1 11.5649 1C13.6041 1 15.1865 1.50762 16.3119 2.52285C17.4373 3.52823 18 4.95251 18 6.7957C18 7.63351 17.8172 8.42697 17.4517 9.17607C17.0862 9.91532 16.4465 10.7384 15.5327 11.6452L14.364 12.7836C13.633 13.5031 13.2146 14.3459 13.1088 15.3118L13.0511 16.2137H9.35738ZM8.93896 20.7527C8.93896 20.0923 9.15538 19.5502 9.58824 19.1263C10.0307 18.6927 10.5934 18.4758 11.2764 18.4758C11.9593 18.4758 12.5172 18.6927 12.9501 19.1263C13.3925 19.5502 13.6138 20.0923 13.6138 20.7527C13.6138 21.4032 13.3973 21.9404 12.9645 22.3642C12.5413 22.7881 11.9785 23 11.2764 23C10.5742 23 10.0067 22.7881 9.57381 22.3642C9.15057 21.9404 8.93896 21.4032 8.93896 20.7527Z" fill="#131212"/>
</svg>
