<svg width="24" height="15" viewBox="0 0 24 15" fill="none" xmlns="http://www.w3.org/2000/svg">
<path fill-rule="evenodd" clip-rule="evenodd" d="M8.97741 14.1538H16.9247C20.8323 14.1538 24 10.9854 24 7.07692C24 3.16845 20.8323 0 16.9247 0H8.61536L12.153 3.53846H16.9247C18.8785 3.53846 20.4623 5.12268 20.4623 7.07692C20.4623 9.03116 18.8785 10.6154 16.9247 10.6154H12.5151L8.97741 14.1538Z" fill="#131212"/>
<path d="M0.499135 7.93554C0.22347 7.65987 0.22347 7.21293 0.499134 6.93727L6.29705 1.13935C6.57271 0.863688 7.01965 0.863687 7.29532 1.13935L13.0932 6.93727C13.3689 7.21293 13.3689 7.65987 13.0932 7.93554L7.29532 13.7335C7.01965 14.0091 6.57271 14.0091 6.29705 13.7335L0.499135 7.93554Z" fill="#A259FF"/>
</svg>
