<svg width="24" height="16" viewBox="0 0 24 16" fill="none" xmlns="http://www.w3.org/2000/svg">
<path fill-rule="evenodd" clip-rule="evenodd" d="M8.97741 14.9568H16.9247C20.8323 14.9568 24 11.7883 24 7.87984C24 3.97136 20.8323 0.802917 16.9247 0.802917H8.61536L12.153 4.34138H16.9247C18.8785 4.34138 20.4623 5.9256 20.4623 7.87984C20.4623 9.83408 18.8785 11.4183 16.9247 11.4183H12.5151L8.97741 14.9568Z" fill="white"/>
<path d="M0.499135 8.73845C0.22347 8.46279 0.22347 8.01585 0.499134 7.74018L6.29705 1.94227C6.57271 1.66661 7.01965 1.6666 7.29532 1.94227L13.0932 7.74018C13.3689 8.01585 13.3689 8.46279 13.0932 8.73845L7.29532 14.5364C7.01965 14.812 6.57271 14.812 6.29705 14.5364L0.499135 8.73845Z" fill="#A259FF"/>
</svg>
