<svg width="406" height="406" viewBox="0 0 406 406" fill="none" xmlns="http://www.w3.org/2000/svg">
<path d="M397 203C397 228.476 391.982 253.703 382.233 277.241C372.483 300.778 358.193 322.164 340.179 340.179C322.164 358.193 300.778 372.483 277.241 382.233C253.703 391.982 228.476 397 203 397C177.524 397 152.297 391.982 128.759 382.233C105.222 372.483 83.8358 358.193 65.8213 340.179C47.8067 322.164 33.5168 300.778 23.7674 277.241C14.018 253.703 9 228.476 9 203C9 177.524 14.018 152.297 23.7674 128.759C33.5168 105.222 47.8067 83.8358 65.8213 65.8213C83.8359 47.8067 105.222 33.5168 128.759 23.7674C152.297 14.018 177.524 9 203 9C228.476 9 253.703 14.018 277.241 23.7674C300.778 33.5168 322.164 47.8067 340.179 65.8213C358.193 83.8359 372.483 105.222 382.233 128.759C391.982 152.297 397 177.524 397 203L397 203Z" stroke="#F4F6FA" stroke-width="18"/>
<path fill-rule="evenodd" clip-rule="evenodd" d="M203.053 9.00001C203.052 13.9706 199.019 17.9761 194.054 18.2164C162.519 19.7429 131.844 29.3197 104.982 46.1003C75.5725 64.4731 51.9186 90.742 36.7188 121.91C21.5191 153.079 15.3855 187.892 19.0178 222.378C22.6501 256.864 35.9019 289.635 57.2617 316.953C78.6215 344.271 107.229 365.035 139.821 376.878C172.414 388.72 207.678 391.164 241.592 383.93C275.507 376.696 306.705 360.076 331.628 335.965C354.392 313.944 371.084 286.484 380.171 256.248C381.602 251.488 386.462 248.54 391.286 249.737V249.737C396.11 250.935 399.07 255.824 397.66 260.59C387.746 294.099 369.332 324.535 344.144 348.902C316.795 375.359 282.561 393.596 245.347 401.534C208.133 409.472 169.438 406.79 133.674 393.796C97.9109 380.801 66.5198 358.016 43.0818 328.04C19.6437 298.065 5.10249 262.105 1.1168 224.263C-2.86888 186.422 3.86147 148.222 20.5401 114.021C37.2187 79.8196 63.1741 50.9948 95.4454 30.8344C125.168 12.2659 159.147 1.73604 194.058 0.196996C199.024 -0.0219182 203.055 4.02945 203.053 9.00001V9.00001Z" fill="#A259FF"/>
</svg>
