<svg width="406" height="406" viewBox="0 0 406 406" fill="none" xmlns="http://www.w3.org/2000/svg">
<path fill-rule="evenodd" clip-rule="evenodd" d="M203 40C181.595 40 160.399 44.2161 140.623 52.4076C120.847 60.5991 102.878 72.6056 87.7416 87.7416C72.6057 102.878 60.5992 120.847 52.4076 140.623C44.2161 160.399 40 181.595 40 203C40 224.405 44.2161 245.601 52.4076 265.377C60.5991 285.153 72.6056 303.122 87.7416 318.258C102.878 333.394 120.847 345.401 140.623 353.592C160.399 361.784 181.595 366 203 366C224.405 366 245.601 361.784 265.377 353.592C285.153 345.401 303.122 333.394 318.258 318.258C333.394 303.122 345.401 285.153 353.592 265.377C361.784 245.601 366 224.405 366 203C366 181.595 361.784 160.399 353.592 140.623C345.401 120.847 333.394 102.878 318.258 87.7416C303.122 72.6057 285.154 60.5992 265.377 52.4076C245.601 44.2161 224.405 40 203 40ZM125.315 15.4524C149.944 5.25074 176.342 -3.49582e-06 203 0C229.658 3.49582e-06 256.056 5.25076 280.685 15.4525C305.314 25.6542 327.692 40.607 346.543 59.4573C365.393 78.3076 380.346 100.686 390.548 125.315C400.749 149.944 406 176.342 406 203C406 229.658 400.749 256.056 390.548 280.685C380.346 305.314 365.393 327.692 346.543 346.543C327.692 365.393 305.314 380.346 280.685 390.548C256.056 400.749 229.658 406 203 406C176.342 406 149.944 400.749 125.315 390.548C100.686 380.346 78.3076 365.393 59.4573 346.543C40.607 327.692 25.6542 305.314 15.4524 280.685C5.25075 256.056 -2.33054e-06 229.658 0 203C2.33055e-06 176.342 5.25075 149.944 15.4525 125.315C25.6542 100.686 40.607 78.3076 59.4573 59.4573C78.3076 40.607 100.686 25.6541 125.315 15.4524Z" fill="#F4F6FA"/>
<path fill-rule="evenodd" clip-rule="evenodd" d="M203.006 20C203.006 31.0457 194.018 39.8732 183.055 41.2248C159.918 44.0773 137.581 51.8707 117.593 64.1667C91.9066 79.9685 71.1073 102.587 57.5094 129.505C43.9115 156.424 38.0482 186.587 40.5718 216.639C43.0953 246.692 53.9068 275.455 71.8035 299.729C89.7001 324.003 113.98 342.835 141.942 354.132C169.905 365.429 200.453 368.747 230.189 363.716C259.924 358.686 287.681 345.505 310.372 325.639C328.028 310.181 342.078 291.147 351.644 269.888C356.177 259.815 367.267 253.839 377.819 257.105V257.105C388.371 260.371 394.369 271.623 390.081 281.803C378.164 310.094 359.948 335.399 336.721 355.734C308.462 380.475 273.893 396.891 236.861 403.156C199.828 409.421 161.783 405.289 126.959 391.22C92.1348 377.151 61.8964 353.696 39.6079 323.466C17.3195 293.235 3.85488 257.414 0.712039 219.987C-2.4308 182.559 4.87135 144.994 21.8062 111.47C38.741 77.9456 64.6444 49.7767 96.6347 30.0971C122.929 13.9213 152.489 4.00233 183.038 0.983731C194.031 -0.102402 203.006 8.95431 203.006 20V20Z" fill="#A259FF"/>
</svg>
