<svg width="24" height="24" viewBox="0 0 24 24" fill="none" xmlns="http://www.w3.org/2000/svg">
<path fill-rule="evenodd" clip-rule="evenodd" d="M5.42424 0.368487C5.82954 0.133983 6.30026 0 6.8 0H9.13334C9.54755 0 9.88334 0.335786 9.88334 0.75C9.88334 1.16421 9.54755 1.5 9.13334 1.5H6.8C6.57104 1.5 6.35856 1.56088 6.17545 1.66683C6.06245 1.7322 6.02879 1.76292 5.92085 1.87085C5.82207 1.96963 5.78221 2.01245 5.71683 2.12544C5.61088 2.30856 5.55 2.52103 5.55 2.75V4.25H17.05C18.5688 4.25 19.8 5.48122 19.8 7V18H20.8C21.029 18 21.2414 17.9391 21.4246 17.8332C21.5376 17.7678 21.5991 17.7092 21.6792 17.6292C21.7871 17.5212 21.8178 17.4876 21.8832 17.3746C21.9891 17.1914 22.05 16.979 22.05 16.75V14.4167C22.05 14.0025 22.3858 13.6667 22.8 13.6667C23.2142 13.6667 23.55 14.0025 23.55 14.4167V16.75C23.55 17.2497 23.416 17.7205 23.1815 18.1258C23.0458 18.3603 22.9384 18.5286 22.7585 18.6725C22.5426 18.8884 22.4103 18.9958 22.1758 19.1315C21.7705 19.366 21.2997 19.5 20.8 19.5H19.8V21C19.8 22.5188 18.5688 23.75 17.05 23.75H3.05C1.53122 23.75 0.300003 22.5188 0.300003 21V7C0.300003 5.48122 1.53122 4.25 3.05 4.25H4.05V2.75C4.05 2.25026 4.18399 1.77954 4.41849 1.37424C4.55421 1.13967 4.60693 1.06208 4.80554 0.863469C5.09336 0.575646 5.18968 0.504204 5.42424 0.368487ZM10.7167 0.75C10.7167 0.335786 11.0525 0 11.4667 0H16.1333C16.5476 0 16.8833 0.335786 16.8833 0.75C16.8833 1.16421 16.5476 1.5 16.1333 1.5H11.4667C11.0525 1.5 10.7167 1.16421 10.7167 0.75ZM17.7167 0.75C17.7167 0.335786 18.0525 0 18.4667 0H20.8C21.2997 0 21.7705 0.133983 22.1758 0.368487C22.4103 0.504204 22.5786 0.611624 22.7585 0.827491C22.9744 1.04336 23.0458 1.13967 23.1815 1.37424C23.416 1.77954 23.55 2.25026 23.55 2.75V5.08333C23.55 5.49755 23.2142 5.83333 22.8 5.83333C22.3858 5.83333 22.05 5.49755 22.05 5.08333V2.75C22.05 2.52103 21.9891 2.30856 21.8832 2.12544C21.8832 2.12544 21.7511 1.90683 21.6792 1.87085C21.5712 1.76292 21.4246 1.66683 21.4246 1.66683C21.2414 1.56088 21.029 1.5 20.8 1.5H18.4667C18.0525 1.5 17.7167 1.16421 17.7167 0.75ZM22.8 6.66667C23.2142 6.66667 23.55 7.00245 23.55 7.41667V12.0833C23.55 12.4975 23.2142 12.8333 22.8 12.8333C22.3858 12.8333 22.05 12.4975 22.05 12.0833V7.41667C22.05 7.00245 22.3858 6.66667 22.8 6.66667ZM1.8 7C1.8 6.30964 2.35965 5.75 3.05 5.75H17.05C17.7404 5.75 18.3 6.30964 18.3 7V21C18.3 21.6904 17.7404 22.25 17.05 22.25H3.05C2.35965 22.25 1.8 21.6904 1.8 21V7ZM10.05 9.25C10.4642 9.25 10.8 9.58579 10.8 10V13.25H14.05C14.4642 13.25 14.8 13.5858 14.8 14C14.8 14.4142 14.4642 14.75 14.05 14.75H10.8V18C10.8 18.4142 10.4642 18.75 10.05 18.75C9.63579 18.75 9.3 18.4142 9.3 18V14.75H6.05C5.63579 14.75 5.3 14.4142 5.3 14C5.3 13.5858 5.63579 13.25 6.05 13.25H9.3V10C9.3 9.58579 9.63579 9.25 10.05 9.25Z" fill="black"/>
</svg>
