<svg width="24" height="24" viewBox="0 0 24 24" fill="none" xmlns="http://www.w3.org/2000/svg">
<path fill-rule="evenodd" clip-rule="evenodd" d="M11.7 13.5714C11.5895 13.5714 11.5 13.4819 11.5 13.3714V10.6286C11.5 10.5181 11.5895 10.4286 11.7 10.4286H12.3C12.4105 10.4286 12.5 10.5181 12.5 10.6286V13.3714C12.5 13.4819 12.4105 13.5714 12.3 13.5714H11.7ZM11.7 19.8571C11.5895 19.8571 11.5 19.9467 11.5 20.0571V22.8C11.5 22.9105 11.5895 23 11.7 23H12.3C12.4105 23 12.5 22.9105 12.5 22.8V20.0571C12.5 19.9467 12.4105 19.8571 12.3 19.8571H11.7ZM12.5 3.94286C12.5 4.05331 12.4105 4.14286 12.3 4.14286H11.7C11.5895 4.14286 11.5 4.05331 11.5 3.94286V1.2C11.5 1.08954 11.5895 1 11.7 1H12.3C12.4105 1 12.5 1.08954 12.5 1.2V3.94286Z" fill="#131212" stroke="#131212" stroke-width="0.5"/>
<path fill-rule="evenodd" clip-rule="evenodd" d="M19.9167 6.58333C19.9167 6.03105 19.469 5.58333 18.9167 5.58333H5.08333C4.53105 5.58333 4.08333 6.03105 4.08333 6.58333V7.75C4.08333 8.30228 4.53105 8.75 5.08333 8.75H18.9167C19.469 8.75 19.9167 8.30228 19.9167 7.75V6.58333ZM3.5 4C2.94772 4 2.5 4.44772 2.5 5V9.33333C2.5 9.88562 2.94771 10.3333 3.5 10.3333H20.5C21.0523 10.3333 21.5 9.88562 21.5 9.33333V5C21.5 4.44772 21.0523 4 20.5 4H3.5Z" fill="#131212"/>
<path fill-rule="evenodd" clip-rule="evenodd" d="M16.75 16.0833C16.75 15.531 16.3022 15.0833 15.75 15.0833H8.24996C7.69767 15.0833 7.24996 15.531 7.24996 16.0833V17.25C7.24996 17.8023 7.69767 18.25 8.24996 18.25H15.75C16.3022 18.25 16.75 17.8023 16.75 17.25V16.0833ZM6.66663 13.5C6.11434 13.5 5.66663 13.9477 5.66663 14.5V18.8333C5.66663 19.3856 6.11434 19.8333 6.66663 19.8333H17.3333C17.8856 19.8333 18.3333 19.3856 18.3333 18.8333V14.5C18.3333 13.9477 17.8856 13.5 17.3333 13.5H6.66663Z" fill="#131212"/>
</svg>
