<?xml version="1.0" encoding="utf-8"?>
<!-- Generator: Adobe Illustrator 24.1.1, SVG Export Plug-In . SVG Version: 6.00 Build 0)  -->
<svg version="1.1" id="Layer_1" xmlns="http://www.w3.org/2000/svg" xmlns:xlink="http://www.w3.org/1999/xlink" x="0px" y="0px"
	 viewBox="0 0 500 500" style="enable-background:new 0 0 500 500;" xml:space="preserve">
<style type="text/css">
	.st0{fill:#41A5EE;}
	.st1{fill:#103F91;}
	.st2{fill:#185ABD;}
	.st3{fill:#2B7CD3;}
	.st4{fill:#3F9FE6;}
	.st5{fill:#0F3D8C;}
	.st6{fill:#1757B6;}
	.st7{fill:#2A78CC;}
	.st8{fill:#0F3B87;}
	.st9{fill:#3B95D7;}
	.st10{fill:#0E3983;}
	.st11{fill:#1651AB;}
	.st12{fill:#2770BF;}
	.st13{fill:#0E377E;}
	.st14{fill:#378CC9;}
	.st15{fill:#0D357A;}
	.st16{fill:#154CA0;}
	.st17{fill:#2469B2;}
	.st18{fill:#40A4EC;}
	.st19{fill:#3E9EE4;}
	.st20{fill:#3A94D6;}
	.st21{fill:#368AC7;}
	.st22{fill:#0D3476;}
	.st23{fill:#0B2E67;}
	.st24{fill:#0A295C;}
	.st25{fill:#09234F;}
	.st26{fill:#081E45;}
	.st27{fill:#071B3F;}
	.st28{fill:#3382BC;}
	.st29{fill:#0D3273;}
	.st30{fill:#134795;}
	.st31{fill:#2262A6;}
	.st32{fill:#071C41;}
	.st33{fill:#071A3C;}
	.st34{fill:#CBCBCB;}
	.st35{fill:#3483BD;}
	.st36{fill:#CACACA;}
	.st37{fill:#245C85;}
	.st38{fill:#205175;}
	.st39{fill:#153D67;}
	.st40{fill:#143961;}
	.st41{fill:#12355A;}
	.st42{fill:#123357;}
	.st43{fill:#1A4360;}
	.st44{fill:#0A244C;}
	.st45{fill:#113255;}
	.st46{fill:#06193B;}
	.st47{fill:#061838;}
	.st48{fill:#1C5189;}
	.st49{fill:#19497C;}
	.st50{fill:#0C306E;}
	.st51{fill:#0B2B62;}
	.st52{fill:#0B2D68;}
	.st53{fill:#0A295D;}
	.st54{fill:#0A2758;}
	.st55{fill:#0A2658;}
	.st56{fill:#092454;}
	.st57{fill:#092350;}
	.st58{fill:#08224C;}
	.st59{fill:#082049;}
	.st60{fill:#081F47;}
	.st61{fill:#071D43;}
	.st62{fill:#0C306F;}
	.st63{fill:#307BB0;}
	.st64{fill:#0C2F6C;}
	.st65{fill:#12438C;}
	.st66{fill:#205C9C;}
	.st67{fill:#0B295D;}
	.st68{fill:#0A285B;}
	.st69{fill:#092554;}
	.st70{fill:#092452;}
	.st71{fill:#08214C;}
	.st72{fill:#071C3F;}
	.st73{fill:#071C3E;}
	.st74{fill:#071A3D;}
	.st75{fill:#0B2A60;}
	.st76{fill:#081E46;}
	.st77{fill:#071B3E;}
	.st78{fill:#071A3B;}
	.st79{fill:#061939;}
	.st80{fill:#061837;}
	.st81{fill:#286793;}
	.st82{fill:#0A275A;}
	.st83{fill:#0F3875;}
	.st84{fill:#1B4D83;}
	.st85{fill:#245D85;}
	.st86{fill:#092351;}
	.st87{fill:#0E326A;}
	.st88{fill:#184676;}
	.st89{fill:#0C2C5D;}
	.st90{fill:#0B2854;}
	.st91{fill:#092248;}
	.st92{fill:#061736;}
	.st93{fill:#061735;}
	.st94{fill:#092145;}
	.st95{fill:#3C99DC;}
	.st96{fill:#3A94D5;}
	.st97{fill:#368AC8;}
	.st98{fill:#3382BB;}
	.st99{fill:#BEBEBE;}
	.st100{fill:#0A244B;}
	.st101{fill:#B9B9B9;}
	.st102{fill:#09234A;}
	.st103{fill:#0D2F63;}
	.st104{fill:#0A2650;}
	.st105{fill:#061734;}
	.st106{fill:#061634;}
	.st107{fill:#092043;}
	.st108{fill:#3586C1;}
	.st109{fill:#3381BB;}
	.st110{fill:#317DB5;}
	.st111{fill:#2F77AB;}
	.st112{fill:#22567C;}
	.st113{fill:#2C70A1;}
	.st114{fill:#1D548F;}
	.st115{fill:#2C71A2;}
	.st116{fill:#2A6B9A;}
	.st117{fill:#296896;}
	.st118{fill:#286693;}
	.st119{fill:#27638F;}
	.st120{fill:#AFAFAF;}
	.st121{fill:#AEAEAE;}
	.st122{fill:#215377;}
	.st123{fill:#205074;}
	.st124{fill:#1F4E70;}
	.st125{fill:#1E4C6E;}
	.st126{fill:#1D4A6B;}
	.st127{fill:#13385F;}
	.st128{fill:#1C4868;}
	.st129{fill:#1C4766;}
	.st130{fill:#1B4564;}
	.st131{fill:#12365A;}
	.st132{fill:#113256;}
	.st133{fill:#0A2349;}
	.st134{fill:#113153;}
	.st135{fill:#193F5B;}
	.st136{fill:#113051;}
	.st137{fill:#1B4563;}
	.st138{fill:#255E88;}
	.st139{fill:#194779;}
	.st140{fill:#1D4A6A;}
	.st141{fill:#13375E;}
	.st142{fill:#1B4462;}
	.st143{fill:#123458;}
	.st144{fill:#113053;}
	.st145{fill:#092246;}
	.st146{fill:#102F50;}
	.st147{fill:#183D59;}
	.st148{fill:#102E4F;}
	.st149{fill:#16416E;}
	.st150{fill:#1C4665;}
	.st151{fill:#123559;}
	.st152{fill:#1A415E;}
	.st153{fill:#113154;}
	.st154{fill:#102F51;}
	.st155{fill:#092146;}
	.st156{fill:#183D58;}
	.st157{fill:#102E4E;}
	.st158{fill:#0C2E60;}
	.st159{fill:#215378;}
	.st160{fill:#0D2D5F;}
	.st161{fill:#163E6A;}
	.st162{fill:#0A254E;}
	.st163{fill:#1B4463;}
	.st164{fill:#113052;}
	.st165{fill:#102D4D;}
	.st166{fill:#092044;}
	.st167{fill:#183C57;}
	.st168{fill:#173C56;}
	.st169{fill:#102D4C;}
	.st170{fill:#102C4B;}
	.st171{fill:#173B55;}
	.st172{fill:#0F2C4B;}
	.st173{fill:#FFFFFF;}
</style>
<g>
	<path class="st0" d="M173.99,93.82h243.24c8.35-0.05,15.16,6.65,15.26,14.99v282.47c-0.1,8.33-6.93,15-15.26,14.9H173.99
		c-4.04-0.01-7.9-1.56-10.82-4.35c-2.85-2.77-4.45-6.58-4.44-10.54V108.82c-0.02-4,1.58-7.84,4.44-10.64
		C166.13,95.46,169.98,93.92,173.99,93.82"/>
	<path class="st1" d="M432.5,328.18H158.73v63.1c0.1,8.33,6.93,15,15.26,14.9h243.24c8.33,0.1,15.16-6.57,15.26-14.9V328.18"/>
	<polyline class="st2" points="158.73,250.1 432.5,250.1 432.5,328.18 158.73,328.18 158.73,250.1 	"/>
	<polyline class="st3" points="158.73,172 432.5,172 432.5,250.09 158.73,250.09 158.73,172 	"/>
	<path class="st4" d="M267.07,250.09h-4.46v0.01L267.07,250.09L267.07,250.09 M255.79,157.66h-7.52c0.71,1.06,1.24,2.25,1.55,3.52
		h1.43c0.03,0,0.06,0,0.09,0c6.07,0,11.04,4.79,11.27,10.82h4.47v-2.77c0.05-6.13-4.88-11.15-11.01-11.2h-0.28V157.66"/>
	<path class="st5" d="M267.07,328.18h-4.46v6.76c-0.01,0.61-0.07,1.2-0.17,1.78v1.09v0.19c-0.02,0.94-0.16,1.85-0.41,2.72
		c3.01-2.01,5-5.42,5.04-9.31V328.18"/>
	<polyline class="st6" points="267.07,250.1 262.61,250.1 262.61,328.18 267.07,328.18 267.07,250.1 	"/>
	<path class="st7" d="M267.07,172h-4.47c0,0.09,0.01,0.18,0.01,0.28v77.81h4.46V172"/>
	<path class="st8" d="M158.73,333.94v32.18h75.87c0.1,0,0.2,0,0.29,0c7.79,0,14.24-6.01,14.84-13.71c-0.57,0.23-1.16,0.43-1.77,0.57
		c-2.52,4.6-7.41,7.69-12.98,7.69c-0.13,0-0.26,0-0.38,0h-75.87v-4.91V333.94L158.73,333.94"/>
	<path class="st9" d="M262.61,250.09h-0.17v0.01L262.61,250.09L262.61,250.09 M251.34,161.18c-0.03,0-0.06,0-0.09,0h-1.43
		c0.2,0.83,0.32,1.7,0.32,2.59v2.03h0.83c0.06,0,0.12,0,0.18,0c4.4,0,8.22,2.52,10.08,6.2h1.37
		C262.38,165.97,257.41,161.18,251.34,161.18"/>
	<path class="st10" d="M262.61,328.18h-0.17v8.53c0.1-0.58,0.16-1.17,0.17-1.78V328.18"/>
	<polyline class="st11" points="262.61,250.1 262.44,250.1 262.44,328.18 262.61,328.18 262.61,250.1 	"/>
	<path class="st12" d="M262.6,172h-1.37c0.75,1.48,1.18,3.14,1.21,4.91v73.18h0.17v-77.81C262.61,172.19,262.61,172.1,262.6,172"/>
	<path class="st8" d="M262.04,340.72c-0.57,0.38-1.18,0.71-1.81,0.98c-1.04,1.33-2.37,2.42-3.89,3.17c-0.33,1.26-0.88,2.44-1.6,3.49
		C258.26,347.21,261.03,344.34,262.04,340.72"/>
	<path class="st10" d="M262.44,336.72c-0.33,1.86-1.1,3.56-2.22,4.98c0.64-0.27,1.24-0.6,1.81-0.98c0.24-0.87,0.38-1.78,0.41-2.72
		v-0.19V336.72"/>
	<path class="st13" d="M260.22,341.7c-1.1,0.47-2.29,0.77-3.53,0.87c-0.04,0.79-0.16,1.56-0.36,2.3
		C257.86,344.12,259.19,343.03,260.22,341.7"/>
	<path class="st14" d="M262.44,250.09h-1.94v0.01L262.44,250.09L262.44,250.09 M251.15,165.8c-0.06,0-0.12,0-0.18,0h-0.83v0.93l0,0
		v2.96l0,0v1.24c1.41,0.11,2.74,0.49,3.96,1.07h7.14C259.37,168.32,255.55,165.8,251.15,165.8"/>
	<path class="st15" d="M262.44,328.18h-1.94v5.84v0.09c-0.03,3.32-1.5,6.29-3.81,8.32c0,0.05,0,0.1-0.01,0.14
		c1.25-0.1,2.43-0.4,3.53-0.87c1.11-1.42,1.89-3.12,2.22-4.98V328.18"/>
	<polyline class="st16" points="262.44,250.1 260.5,250.1 260.5,328.18 262.44,328.18 262.44,250.1 	"/>
	<path class="st17" d="M261.24,172h-7.14c3.76,1.81,6.37,5.64,6.41,10.09v68h1.94v-73.18C262.42,175.15,261.98,173.48,261.24,172"/>
	<path class="st18" d="M238.95,152.67c-0.03,0-0.06,0-0.09,0c-0.1,0-0.19,0-0.29,0.01l-0.38-0.01h-79.29v10.04l0,0v-6.98h79.29h0.28
		c0.1,0,0.2,0,0.29,0c2.35,0,4.54,0.71,6.36,1.94h3.14C246.26,154.65,242.84,152.67,238.95,152.67"/>
	<path class="st19" d="M248.27,157.66h-3.14c1.36,0.92,2.51,2.12,3.36,3.52h1.33C249.5,159.91,248.97,158.72,248.27,157.66"/>
	<path class="st20" d="M249.82,161.18h-1.33c0.84,1.37,1.39,2.94,1.58,4.62h0.07v-2.03C250.13,162.88,250.02,162.01,249.82,161.18"
		/>
	<path class="st21" d="M250.14,165.8h-0.07c0.03,0.31,0.06,0.62,0.07,0.93V165.8"/>
	<path class="st22" d="M247.96,352.97c-0.82,0.19-1.67,0.29-2.54,0.29c-0.03,0-0.06,0-0.09,0h-2.19c-2.37,1.58-5.2,2.5-8.25,2.5
		c-0.1,0-0.2,0-0.29,0h-75.87v4.91h75.87c0.13,0,0.26,0,0.38,0C240.55,360.66,245.44,357.57,247.96,352.97"/>
	<path class="st23" d="M158.73,333.94v21.82h75.87c0.1,0,0.2,0,0.29,0c3.04,0,5.88-0.92,8.25-2.5h-77.1c-1.38,0-2.64-0.49-3.64-1.3
		h-3.67v-3.42v-6.84V333.94L158.73,333.94"/>
	<path class="st24" d="M160.39,348.54h-1.66v3.42h3.67C161.37,351.12,160.64,349.91,160.39,348.54"/>
	<path class="st25" d="M160.3,341.69h-1.57v6.84h1.66c-0.05-0.27-0.08-0.55-0.09-0.83V341.69"/>
	<path class="st26" d="M158.92,340.49h-0.19v1.21h1.57v-0.32c-0.11,0-0.21,0.01-0.32,0.01c-0.36,0-0.71-0.02-1.06-0.07V340.49"/>
	<path class="st27" d="M158.73,333.94v6.55h0.19v-6.38C158.85,334.05,158.79,333.99,158.73,333.94"/>
	<path class="st28" d="M260.5,250.09h-3.8v0.01L260.5,250.09L260.5,250.09 M250.14,170.93V172h3.96
		C252.88,171.42,251.55,171.05,250.14,170.93"/>
	<path class="st29" d="M260.5,328.18h-3.8v13.88c0,0.12,0,0.24-0.01,0.36c2.31-2.03,3.78-5,3.81-8.32v-0.09V328.18"/>
	<polyline class="st30" points="260.5,250.1 256.71,250.1 256.71,328.18 260.5,328.18 260.5,250.1 	"/>
	<path class="st31" d="M254.1,172h-3.96v0.28c1.91,1.45,3.23,3.14,3.23,5.09v4.84c2.04,2.02,3.31,4.82,3.33,7.92v59.95h3.8v-68
		C260.47,177.64,257.86,173.81,254.1,172"/>
	<path class="st32" d="M160.3,340.49h-1.38v0.83c0.35,0.04,0.71,0.07,1.06,0.07c0.11,0,0.21,0,0.32-0.01V340.49"/>
	<path class="st33" d="M158.92,334.11v6.38h1.38v-5.5C159.8,334.76,159.33,334.46,158.92,334.11"/>
	<path class="st34" d="M158.73,162.87c-1.04,1-1.71,2.4-1.76,3.95v163.11c0.03,1.58,0.7,3,1.76,4v-3.61
		c-0.59-0.88-0.93-1.94-0.93-3.08v-2.77l0,0v-2.87l0,0v-22.85h0.93V162.87"/>
	<path class="st35" d="M158.91,162.71c-0.06,0.05-0.12,0.11-0.18,0.16v135.9V250.1v-0.01V172v-6.1h0.18V162.71"/>
	<polyline class="st36" points="158.73,298.77 157.8,298.77 157.8,321.61 157.8,321.61 157.8,301.63 158.73,301.63 158.73,298.77 	
		"/>
	<polyline class="st37" points="158.91,165.9 158.73,165.9 158.73,172 158.73,169.23 158.91,169.23 158.91,165.9 	"/>
	<polyline class="st38" points="158.91,169.23 158.73,169.23 158.73,172 158.91,172 158.91,169.23 	"/>
	<polyline class="st39" points="158.91,172 158.73,172 158.73,176.72 158.73,172.83 158.91,172.83 158.91,172 	"/>
	<polyline class="st40" points="158.91,172.83 158.73,172.83 158.73,176.72 158.91,176.72 158.91,172.83 	"/>
	<polyline class="st41" points="158.91,176.72 158.73,176.72 158.73,181.63 158.91,181.63 158.91,176.72 	"/>
	<polyline class="st42" points="158.91,181.63 158.73,181.63 158.73,186.99 158.91,186.99 158.91,181.63 	"/>
	<polyline class="st43" points="158.91,250.09 158.73,250.09 158.73,250.1 158.91,250.1 158.91,250.09 	"/>
	<polyline class="st44" points="158.91,250.1 158.73,250.1 158.73,298.77 158.91,298.77 158.91,250.1 	"/>
	<polyline class="st45" points="158.91,186.99 158.73,186.99 158.73,250.09 158.91,250.09 158.91,186.99 	"/>
	<polyline class="st44" points="158.91,250.1 158.91,250.1 158.91,298.77 158.73,298.77 158.73,301.63 158.91,301.63 158.91,250.1 	
		"/>
	<path class="st46" d="M158.73,330.33v3.61c0.06,0.06,0.12,0.11,0.19,0.17v-3.51C158.85,330.51,158.79,330.42,158.73,330.33"/>
	<path class="st47" d="M158.92,330.59v3.51c0.41,0.36,0.88,0.66,1.38,0.88v-3.1C159.77,331.54,159.3,331.1,158.92,330.59"/>
	<path class="st48" d="M250.14,172.28v4.14c0.78,1.31,1.3,2.79,1.49,4.37c0.63,0.41,1.21,0.89,1.75,1.42v-4.84
		C253.37,175.42,252.05,173.74,250.14,172.28"/>
	<path class="st49" d="M250.14,176.43v3.54c0.52,0.24,1.02,0.52,1.49,0.83C251.43,179.22,250.91,177.74,250.14,176.43"/>
	<path class="st8" d="M254.73,348.36c-1.09,0.36-2.26,0.55-3.47,0.55c-0.1,0-0.19,0-0.29,0h-1.2v2.78
		c-0.01,0.24-0.02,0.48-0.04,0.72C251.76,351.57,253.5,350.15,254.73,348.36"/>
	<path class="st13" d="M249.77,348.91h-0.31c-0.3,1.45-0.81,2.81-1.5,4.07c0.61-0.14,1.2-0.33,1.77-0.57
		c0.02-0.24,0.03-0.48,0.04-0.72V348.91"/>
	<path class="st13" d="M256.33,344.87c-1.51,0.75-3.21,1.17-5,1.17c-0.03,0-0.06,0-0.09,0h-1.46v0.28l0,0v2.59h1.2
		c0.1,0,0.2,0,0.29,0c1.21,0,2.37-0.19,3.47-0.55C255.45,347.31,256,346.14,256.33,344.87"/>
	<path class="st22" d="M249.77,346.31c-0.03,0.89-0.13,1.75-0.31,2.59h0.31V346.31"/>
	<path class="st22" d="M256.69,342.57c-0.06,0-0.12,0.01-0.18,0.01c-1.84,1.55-4.18,2.51-6.74,2.62v0.84h1.46c0.03,0,0.06,0,0.09,0
		c1.79,0,3.49-0.42,5-1.17C256.53,344.13,256.65,343.36,256.69,342.57"/>
	<path class="st29" d="M256.7,342.42c-0.06,0.05-0.12,0.11-0.18,0.16c0.06,0,0.12-0.01,0.18-0.01
		C256.69,342.52,256.7,342.47,256.7,342.42"/>
	<path class="st50" d="M249.47,348.91h-2.04c-1.11,1.73-2.57,3.21-4.28,4.35h2.19c0.03,0,0.06,0,0.09,0c0.87,0,1.72-0.1,2.54-0.29
		C248.65,351.72,249.16,350.35,249.47,348.91"/>
	<path class="st51" d="M247.42,348.91h-3.49c-2.51,1.92-5.65,3.06-9.04,3.06c-0.1,0-0.2,0-0.29,0H162.4c0.99,0.81,2.26,1.3,3.64,1.3
		h77.1C244.85,352.12,246.31,350.64,247.42,348.91"/>
	<path class="st52" d="M249.77,346.04h-0.92c-0.38,1.01-0.86,1.97-1.43,2.87h2.04c0.18-0.84,0.28-1.71,0.31-2.59V346.04"/>
	<path class="st53" d="M248.86,346.04h-2.07c-0.82,1.08-1.78,2.05-2.85,2.87h3.49C248,348.01,248.48,347.05,248.86,346.04"/>
	<path class="st51" d="M249.77,345.2c-0.15,0.01-0.31,0.01-0.46,0.01c-0.03,0-0.06,0-0.09,0h-0.08c-0.09,0.28-0.18,0.56-0.28,0.83
		h0.92V345.2"/>
	<path class="st54" d="M249.14,345.21h-1.77c-0.19,0.28-0.38,0.56-0.58,0.83h2.07C248.96,345.76,249.05,345.49,249.14,345.21"/>
	<path class="st55" d="M169.52,348.54h-9.13c0.25,1.38,0.98,2.58,2.01,3.42h72.19c0.1,0,0.2,0,0.29,0c3.39,0,6.53-1.14,9.04-3.06
		h-72.25h-0.19C170.79,348.9,170.13,348.77,169.52,348.54"/>
	<path class="st56" d="M246.78,346.04h-3.56c-2.36,1.59-5.2,2.51-8.24,2.51c-0.13,0-0.26,0-0.38,0h-65.08
		c0.61,0.23,1.28,0.36,1.97,0.37h0.19h72.25C245.01,348.08,245.97,347.12,246.78,346.04"/>
	<path class="st57" d="M247.37,345.21h-3.02c-0.36,0.29-0.73,0.57-1.12,0.83h3.56C246.99,345.77,247.18,345.49,247.37,345.21"/>
	<path class="st58" d="M164.52,341.69h-4.21v6.01c0.01,0.28,0.04,0.56,0.09,0.83h9.13c-1.97-0.75-3.4-2.6-3.56-4.79
		C165.33,343.18,164.84,342.48,164.52,341.69"/>
	<path class="st59" d="M165.96,343.75c0.16,2.2,1.59,4.04,3.56,4.79h65.08c0.13,0,0.26,0,0.38,0c3.04,0,5.88-0.92,8.24-2.51h-71.37
		h-0.09c-1.14,0-2.2-0.34-3.08-0.93C167.65,344.91,166.71,344.43,165.96,343.75"/>
	<path class="st60" d="M168.69,345.11c0.88,0.59,1.94,0.93,3.08,0.93h0.09h71.37c0.39-0.26,0.76-0.54,1.12-0.83h-74.5
		c-0.03,0-0.06,0-0.09,0C169.39,345.21,169.03,345.17,168.69,345.11"/>
	<path class="st61" d="M164.38,341.32h-3.33c-0.25,0.03-0.49,0.05-0.74,0.06v0.32h4.21C164.47,341.57,164.42,341.45,164.38,341.32"
		/>
	<path class="st62" d="M256.52,342.58c-0.24,0.02-0.48,0.02-0.73,0.02h-6.01v2.59C252.33,345.09,254.68,344.13,256.52,342.58"/>
	<polyline class="st63" points="256.71,250.09 253.37,250.09 253.37,250.1 256.71,250.1 256.71,250.09 	"/>
	<path class="st64" d="M256.71,328.18h-4.05c-0.25,0.67-0.57,1.31-0.94,1.92v0.02c-0.02,2.32-0.73,4.46-1.94,6.24v1.17l0,0v5.07
		h6.01c0.24,0,0.49-0.01,0.73-0.02c0.06-0.05,0.12-0.1,0.18-0.16c0-0.12,0.01-0.24,0.01-0.36V328.18"/>
	<path class="st65" d="M256.71,250.1h-3.33v74.29c-0.02,1.34-0.27,2.61-0.72,3.8h4.05V250.1"/>
	<path class="st66" d="M253.37,182.22v67.87h3.33v-59.95C256.68,187.04,255.41,184.24,253.37,182.22"/>
	<path class="st67" d="M249.77,342.6h-0.09c-0.1,0.89-0.29,1.76-0.54,2.6h0.08c0.03,0,0.06,0,0.09,0c0.15,0,0.31,0,0.46-0.01V342.6"
		/>
	<path class="st68" d="M249.77,341.32c-0.01,0.43-0.04,0.86-0.09,1.29h0.09V341.32"/>
	<path class="st69" d="M249.68,342.6h-0.96c-0.37,0.92-0.82,1.79-1.35,2.6h1.77C249.39,344.37,249.57,343.5,249.68,342.6"/>
	<path class="st70" d="M249.77,337.53c-0.05,1.79-0.42,3.5-1.05,5.07h0.96c0.05-0.42,0.08-0.85,0.09-1.29V337.53"/>
	<path class="st58" d="M248.72,342.6h-1.88c-0.72,0.97-1.56,1.84-2.49,2.6h3.02C247.9,344.39,248.35,343.52,248.72,342.6"/>
	<path class="st71" d="M249.77,336.36c-0.1,0.15-0.2,0.29-0.31,0.43c-0.45,2.15-1.36,4.12-2.63,5.81h1.88
		c0.63-1.57,1-3.28,1.05-5.07V336.36"/>
	<path class="st59" d="M165.94,341.69h-1.43c0.32,0.79,0.82,1.49,1.44,2.05c-0.01-0.13-0.01-0.26-0.01-0.4V341.69"/>
	<path class="st60" d="M166.35,341.69h-0.41v1.65c0,0.13,0,0.27,0.01,0.4c0.76,0.68,1.7,1.17,2.74,1.36
		C167.52,344.33,166.66,343.11,166.35,341.69"/>
	<path class="st26" d="M173.36,341.69h-7.01c0.31,1.42,1.17,2.63,2.34,3.41c0.34,0.06,0.69,0.1,1.05,0.1c0.03,0,0.06,0,0.09,0h74.5
		c0.93-0.76,1.77-1.64,2.49-2.6h-70.43C175.29,342.59,174.24,342.26,173.36,341.69"/>
	<path class="st61" d="M249.46,336.79c-2.06,2.75-5.35,4.52-9.04,4.52c-0.03,0-0.06,0-0.09,0h-1.8c-1.08,0.25-2.21,0.39-3.37,0.39
		c-0.19,0-0.38,0-0.57-0.01h-61.24c0.88,0.56,1.93,0.9,3.05,0.91h70.43C248.1,340.91,249.01,338.94,249.46,336.79"/>
	<path class="st32" d="M165.94,341.32h-1.56c0.04,0.13,0.09,0.25,0.14,0.38h1.43V341.32"/>
	<path class="st72" d="M166.28,341.32h-0.34v0.38h0.41C166.32,341.57,166.3,341.45,166.28,341.32"/>
	<path class="st73" d="M172.84,341.32h-6.56c0.02,0.13,0.04,0.25,0.07,0.38h7.01C173.18,341.58,173,341.45,172.84,341.32"/>
	<path class="st74" d="M238.53,341.32h-65.7c0.17,0.13,0.34,0.26,0.52,0.38h61.24c0.19,0.01,0.38,0.01,0.57,0.01
		C236.32,341.71,237.45,341.57,238.53,341.32"/>
	<path class="st27" d="M164.18,340.49h-3.87v0.89c0.25-0.01,0.5-0.03,0.74-0.06h3.33C164.29,341.05,164.22,340.77,164.18,340.49"/>
	<path class="st46" d="M160.3,334.99v5.5h3.87c-0.04-0.27-0.07-0.55-0.07-0.83v-4.17h-1.39c-0.03,0-0.06,0-0.09,0
		C161.79,335.48,161.01,335.31,160.3,334.99"/>
	<path class="st75" d="M251.71,330.1c-0.54,0.87-1.19,1.67-1.94,2.36v3.9c1.21-1.78,1.92-3.93,1.94-6.24V330.1"/>
	<path class="st76" d="M249.77,334.2c-0.03,0.89-0.13,1.76-0.31,2.6c0.11-0.14,0.21-0.29,0.31-0.43V334.2"/>
	<path class="st27" d="M249.77,332.47c-0.43,0.4-0.9,0.77-1.39,1.1c-1.95,3.87-5.55,6.75-9.85,7.75h1.8c0.03,0,0.06,0,0.09,0
		c3.69,0,6.98-1.77,9.04-4.52c0.18-0.84,0.28-1.71,0.31-2.6V332.47"/>
	<path class="st77" d="M165.94,340.49h-1.77c0.05,0.28,0.12,0.56,0.2,0.83h1.56V340.49"/>
	<path class="st33" d="M166.22,340.49h-0.28v0.83h0.34C166.24,341.05,166.22,340.77,166.22,340.49L166.22,340.49"/>
	<path class="st78" d="M172,340.49h-5.78c0,0.28,0.02,0.56,0.06,0.83h6.56C172.53,341.07,172.25,340.79,172,340.49"/>
	<path class="st46" d="M248.38,333.57c-0.37,0.25-0.76,0.48-1.16,0.68c-2.72,3.8-7.16,6.24-12.12,6.24c-0.17,0-0.33,0-0.5-0.01H172
		c0.25,0.3,0.53,0.58,0.84,0.83h65.7C242.82,340.32,246.42,337.44,248.38,333.57"/>
	<path class="st79" d="M165.94,335.48h-1.84v4.17c0,0.28,0.03,0.56,0.07,0.83h1.77V335.48"/>
	<polyline class="st47" points="166.22,335.48 165.94,335.48 165.94,340.49 166.22,340.49 166.22,335.48 	"/>
	<path class="st47" d="M170.67,335.48h-4.45v5.01H172c-0.78-0.94-1.26-2.13-1.33-3.43V335.48"/>
	<path class="st80" d="M247.22,334.25c-1.54,0.79-3.28,1.23-5.13,1.23c-0.03,0-0.06,0-0.09,0h-71.33v1.57
		c0.06,1.3,0.55,2.49,1.33,3.43h62.6c0.17,0.01,0.33,0.01,0.5,0.01C240.06,340.5,244.5,338.05,247.22,334.25"/>
	<polyline class="st81" points="253.37,250.09 251.71,250.09 251.71,250.1 253.37,250.1 253.37,250.09 	"/>
	<path class="st82" d="M252.65,328.18h-0.94v1.92C252.08,329.5,252.4,328.86,252.65,328.18"/>
	<path class="st83" d="M253.37,250.1h-1.66v78.08h0.94c0.45-1.18,0.7-2.46,0.72-3.8V250.1"/>
	<path class="st84" d="M251.63,180.8c0.05,0.42,0.08,0.86,0.08,1.3v68h1.66v-67.87C252.84,181.69,252.26,181.21,251.63,180.8"/>
	<path class="st80" d="M160.3,331.89v3.1c0.71,0.32,1.49,0.49,2.31,0.49c0.03,0,0.06,0,0.09,0h1.39v-2.8l-0.66,0.12h-0.09
		C162.22,332.8,161.18,332.47,160.3,331.89"/>
	<polyline class="st85" points="251.71,250.09 250.14,250.09 250.14,250.1 251.71,250.1 251.71,250.09 	"/>
	<path class="st86" d="M251.71,328.18h-1.81c-0.03,0.37-0.08,0.73-0.13,1.09v3.2c0.75-0.69,1.4-1.49,1.94-2.36V328.18"/>
	<path class="st87" d="M251.71,250.1h-1.57v59.85c0,0.37-0.06,0.74-0.18,1.11v15.46l0,0c0,0.32,0,0.62-0.01,0.94
		c-0.01,0.24-0.02,0.48-0.04,0.72h1.81V250.1"/>
	<path class="st88" d="M250.14,179.97v70.12h1.57v-68c0-0.44-0.03-0.87-0.08-1.3C251.15,180.49,250.66,180.21,250.14,179.97"/>
	<path class="st60" d="M249.91,328.18h-0.13v1.09C249.83,328.91,249.87,328.55,249.91,328.18"/>
	<path class="st89" d="M249.96,326.52c-0.03,0.55-0.1,1.09-0.19,1.62v0.05h0.13c0.02-0.24,0.04-0.48,0.04-0.72
		C249.96,327.14,249.96,326.84,249.96,326.52L249.96,326.52"/>
	<path class="st90" d="M249.96,311.06c-0.05,0.16-0.11,0.32-0.19,0.48v16.59c0.09-0.53,0.15-1.07,0.19-1.62V311.06"/>
	<path class="st46" d="M249.77,329.27c-0.25,1.53-0.72,2.97-1.39,4.3c0.49-0.33,0.96-0.7,1.39-1.1V329.27"/>
	<path class="st80" d="M249.77,328.18L249.77,328.18c-0.4,2.24-1.29,4.3-2.55,6.07c0.4-0.2,0.79-0.43,1.16-0.68
		c0.67-1.33,1.15-2.78,1.39-4.3V328.18"/>
	<path class="st91" d="M249.77,328.14c0,0.02-0.01,0.03-0.01,0.05h0.01V328.14"/>
	<polyline class="st80" points="165.94,332.36 164.1,332.68 164.1,335.48 165.94,335.48 165.94,332.36 	"/>
	<polyline class="st92" points="166.22,332.31 165.94,332.36 165.94,335.48 166.22,335.48 166.22,332.31 	"/>
	<polyline class="st93" points="170.67,331.52 166.22,332.31 166.22,335.48 170.67,335.48 170.67,331.52 	"/>
	<path class="st93" d="M249.76,328.18h-60.35l-18.75,3.33v3.97H242c0.03,0,0.06,0,0.09,0c1.85,0,3.59-0.44,5.13-1.23
		C248.48,332.49,249.37,330.42,249.76,328.18"/>
	<path class="st94" d="M249.77,311.55c-2.5,5.49-17.12,9.97-22.86,9.97l-37.49,6.67h60.35c0-0.02,0.01-0.03,0.01-0.05V311.55"/>
	<path class="st95" d="M238.77,155.72c-0.1,0-0.2,0-0.29,0h-0.28h-79.29v6.98l0,0v-3.84h13.92c0.96-0.76,2.18-1.21,3.49-1.21
		c0.03,0,0.06,0,0.09,0h68.72C243.31,156.43,241.12,155.72,238.77,155.72"/>
	<path class="st96" d="M176.32,157.66c-1.31,0-2.53,0.45-3.49,1.21h65.37h0.09l0.12-0.01c0.15-0.01,0.3-0.01,0.46-0.01
		c2.57,0,4.96,0.87,6.87,2.33h2.76c-0.86-1.4-2.01-2.61-3.36-3.52h-68.72C176.38,157.66,176.35,157.66,176.32,157.66"/>
	<path class="st97" d="M248.49,161.18h-2.76c1.55,1.19,2.79,2.78,3.55,4.62h0.79C249.88,164.12,249.33,162.56,248.49,161.18"/>
	<path class="st98" d="M250.07,165.8h-0.79c0.5,1.2,0.8,2.51,0.85,3.89v-2.96C250.13,166.42,250.11,166.11,250.07,165.8"/>
	<polyline class="st99" points="158.73,301.63 157.8,301.63 157.8,321.61 157.8,321.61 157.8,304.4 158.73,304.4 158.73,301.63 	"/>
	<polyline class="st100" points="158.91,250.1 158.91,250.1 158.91,301.63 158.73,301.63 158.73,304.4 158.91,304.4 158.91,250.1 	
		"/>
	<path class="st101" d="M157.8,324.48v2.77c0,1.14,0.34,2.2,0.93,3.08v-2.77C158.14,326.68,157.8,325.62,157.8,324.48"/>
	<path class="st79" d="M158.92,328.18h-0.19v2.15c0.06,0.09,0.12,0.18,0.19,0.26V328.18"/>
	<path class="st102" d="M158.73,327.56v0.62h0.19v-0.36C158.85,327.74,158.79,327.65,158.73,327.56"/>
	<path class="st80" d="M159.21,328.18h-0.29v2.41c0.38,0.51,0.85,0.95,1.38,1.3v-2.77C159.9,328.86,159.53,328.54,159.21,328.18"/>
	<path class="st91" d="M158.92,327.83v0.36h0.29C159.11,328.07,159.01,327.95,158.92,327.83"/>
	<path class="st92" d="M160.3,329.12v2.77c0.87,0.57,1.92,0.91,3.05,0.91h0.09l0.66-0.12v-2.77l-0.66,0.12h-0.09
		C162.22,330.03,161.18,329.7,160.3,329.12"/>
	<path class="st103" d="M250.14,250.1L250.14,250.1v57.08c0,0.37-0.06,0.74-0.18,1.11v2.77c0.12-0.37,0.18-0.74,0.18-1.11V250.1"/>
	<path class="st104" d="M249.96,308.29c-0.05,0.16-0.11,0.32-0.19,0.48v2.77c0.07-0.16,0.14-0.32,0.19-0.48V308.29"/>
	<polyline class="st93" points="165.94,329.59 164.1,329.91 164.1,332.68 165.94,332.36 165.94,329.59 	"/>
	<polyline class="st93" points="166.22,329.54 165.94,329.59 165.94,332.36 166.22,332.31 166.22,329.54 	"/>
	<polyline class="st105" points="170.67,328.75 166.22,329.54 166.22,332.31 170.67,331.52 170.67,328.75 	"/>
	<polyline class="st106" points="189.42,328.18 173.84,328.18 170.67,328.75 170.67,331.52 189.42,328.18 	"/>
	<path class="st107" d="M249.77,308.78c-2.5,5.49-17.12,9.97-22.86,9.97l-53.07,9.44h15.58l37.49-6.67c5.74,0,20.36-4.48,22.86-9.97
		V308.78"/>
	<path class="st21" d="M172.82,158.87h-13.92v3.84c1.01-0.89,2.35-1.43,3.8-1.43h8.07c0.09-0.02,0.19-0.03,0.29-0.04
		C171.43,160.29,172.05,159.48,172.82,158.87"/>
	<path class="st108" d="M238.86,158.85c-0.15,0-0.3,0-0.46,0.01l-0.12,0.01h-0.09h-65.37c-0.78,0.61-1.39,1.42-1.76,2.36
		c0.23-0.03,0.47-0.05,0.71-0.05c0.03,0,0.06,0,0.09,0h73.87C243.82,159.72,241.44,158.85,238.86,158.85"/>
	<path class="st109" d="M171.06,161.23c-0.1,0.01-0.19,0.03-0.29,0.04h0.27C171.05,161.26,171.06,161.24,171.06,161.23"/>
	<path class="st110" d="M171.77,161.18c-0.24,0-0.48,0.02-0.71,0.05c-0.01,0.01-0.01,0.03-0.02,0.04h49.3
		c5.54,0.03,10.99,1.36,15.92,3.89c0.17,0.2,0.47,0.41,0.88,0.64h12.15c-0.77-1.84-2-3.43-3.55-4.62h-73.87
		C171.84,161.18,171.8,161.18,171.77,161.18"/>
	<path class="st111" d="M249.29,165.8h-12.15c0.18,0.1,0.38,0.21,0.6,0.32c2.35,0.41,4.52,1.38,6.36,2.77
		c1.34,0.61,2.7,1.27,3.95,2.01h1.18c0.31,0,0.62,0.01,0.92,0.04v-1.24C250.08,168.31,249.79,167,249.29,165.8"/>
	<path class="st112" d="M237.74,166.12c1.52,0.75,3.9,1.66,6.36,2.77C242.26,167.5,240.09,166.53,237.74,166.12"/>
	<path class="st113" d="M249.22,170.9h-1.18c0.6,0.35,1.18,0.72,1.72,1.11h0.38v-1.07C249.84,170.91,249.53,170.9,249.22,170.9"/>
	<path class="st114" d="M250.14,172h-0.38c0.13,0.09,0.26,0.19,0.38,0.28V172"/>
	<path class="st115" d="M170.78,161.27h-8.07c-1.45,0-2.78,0.54-3.8,1.43v3.2h7.37C166.64,163.55,168.46,161.69,170.78,161.27"/>
	<path class="st116" d="M171.04,161.27h-0.27c-2.31,0.42-4.14,2.28-4.5,4.63h4.24c0.05-0.01,0.1-0.02,0.14-0.03v-2.67
		C170.68,162.53,170.81,161.87,171.04,161.27"/>
	<path class="st117" d="M220.35,161.27h-49.3c-0.23,0.6-0.36,1.26-0.38,1.94v2.67c0.3-0.05,0.61-0.07,0.92-0.07
		c0.03,0,0.06,0,0.09,0h65.46c-0.41-0.23-0.71-0.44-0.88-0.64C231.33,162.63,225.88,161.3,220.35,161.27"/>
	<path class="st118" d="M170.67,165.88c-0.05,0.01-0.1,0.02-0.14,0.03h0.14V165.88"/>
	<path class="st119" d="M244.09,168.89c0.79,0.6,1.51,1.27,2.17,2.01h1.78C246.79,170.16,245.43,169.5,244.09,168.89 M171.59,165.8
		c-0.31,0-0.62,0.03-0.92,0.07v0.03h63.93h0.11c0.15,0,0.31-0.01,0.46-0.01c0.88,0,1.74,0.08,2.57,0.22
		c-0.22-0.11-0.42-0.21-0.6-0.32h-65.46C171.65,165.8,171.62,165.8,171.59,165.8"/>
	<path class="st120" d="M157.8,321.61v2.87c0,1.14,0.34,2.2,0.93,3.08v-2.87C158.14,323.81,157.8,322.75,157.8,321.61"/>
	<path class="st121" d="M158.73,304.4h-0.93v17.21c0,1.14,0.34,2.2,0.93,3.08V304.4"/>
	<path class="st122" d="M166.28,165.9h-7.37v3.33h7.31v-2.5v-0.09C166.22,166.39,166.24,166.14,166.28,165.9"/>
	<path class="st123" d="M170.53,165.9h-4.24c-0.04,0.24-0.06,0.49-0.06,0.74v0.09v2.5h0.17
		C167.12,167.53,168.66,166.26,170.53,165.9"/>
	<path class="st124" d="M170.67,165.9h-0.14c-1.86,0.35-3.41,1.63-4.14,3.33h4.28V165.9"/>
	<path class="st125" d="M235.16,165.89c-0.15,0-0.3,0-0.46,0.01h-0.11h-63.93v3.33h63.93l0.19-0.01c0.06,0,0.12,0,0.18,0
		c2.47,0,4.79,0.6,6.84,1.67h4.45c-0.65-0.74-1.38-1.41-2.17-2.01c-2.45-1.11-4.84-2.02-6.36-2.77
		C236.9,165.97,236.04,165.89,235.16,165.89"/>
	<path class="st126" d="M166.22,169.23h-7.31V172h0.01v-1.11c0.35-0.07,0.71-0.1,1.06-0.1c0.36,0,0.71,0.03,1.06,0.1h4.92
		c0.04-0.42,0.13-0.82,0.25-1.21V169.23"/>
	<polyline class="st127" points="158.92,172 158.91,172 158.91,172.83 158.92,172.83 158.92,172 	"/>
	<path class="st128" d="M166.39,169.23h-0.17v0.46C166.27,169.54,166.33,169.38,166.39,169.23"/>
	<path class="st128" d="M166.22,169.69c-0.13,0.39-0.21,0.79-0.25,1.21h0.25V169.69"/>
	<path class="st129" d="M170.67,169.23h-4.28c-0.06,0.15-0.12,0.3-0.17,0.46v1.21h3.44c0.03,0,0.06,0,0.09,0c0.03,0,0.06,0,0.09,0
		h0.83V169.23"/>
	<path class="st130" d="M234.97,169.22c-0.06,0-0.12,0-0.18,0l-0.19,0.01h-63.93v1.66h69.67c0.03,0,0.06,0,0.09,0
		c0.03,0,0.06,0,0.09,0h1.29C239.76,169.83,237.44,169.22,234.97,169.22"/>
	<polyline class="st131" points="158.92,172.83 158.91,172.83 158.91,176.72 158.92,176.72 158.92,172.83 	"/>
	<polyline class="st132" points="158.92,176.72 158.91,176.72 158.91,181.63 158.92,181.63 158.92,176.72 	"/>
	<path class="st133" d="M158.73,324.69v2.87c0.06,0.09,0.12,0.18,0.19,0.26v-2.87C158.85,324.87,158.79,324.78,158.73,324.69"/>
	<polyline class="st134" points="158.92,181.63 158.91,181.63 158.91,186.99 158.92,186.99 158.92,181.63 	"/>
	<polyline class="st135" points="158.92,250.09 158.91,250.09 158.91,250.1 158.92,250.1 158.92,250.09 	"/>
	<path class="st133" d="M158.92,250.1h-0.01v54.3h-0.18v20.29c0.06,0.09,0.12,0.18,0.19,0.26V250.1"/>
	<polyline class="st136" points="158.92,186.99 158.91,186.99 158.91,250.09 158.92,250.09 158.92,186.99 	"/>
	<path class="st137" d="M169.75,170.9c-0.03,0-0.06,0-0.09,0h0.18C169.81,170.9,169.78,170.9,169.75,170.9"/>
	<path class="st138" d="M248.04,170.9h-1.78c0.31,0.35,0.61,0.72,0.89,1.11h2.61C249.22,171.62,248.64,171.25,248.04,170.9"/>
	<path class="st139" d="M249.76,172h-2.61c0.53,0.73,0.99,1.5,1.38,2.32c0.61,0.63,1.15,1.34,1.61,2.1v-4.14
		C250.01,172.19,249.89,172.1,249.76,172"/>
	<path class="st140" d="M246.26,170.9h-4.45c0.07,0.04,0.14,0.07,0.21,0.11c1.16,0.16,2.27,0.51,3.29,1h1.84
		C246.87,171.62,246.57,171.25,246.26,170.9"/>
	<path class="st141" d="M247.15,172h-1.84c1.21,0.58,2.3,1.37,3.22,2.32C248.14,173.51,247.68,172.73,247.15,172"/>
	<path class="st142" d="M241.81,170.9h-1.29c0.51,0,1.01,0.04,1.5,0.11C241.95,170.97,241.88,170.93,241.81,170.9"/>
	<path class="st129" d="M159.98,170.79c-0.36,0-0.71,0.03-1.06,0.1V172h7.02v-0.65c0-0.15,0.01-0.3,0.03-0.45h-4.92
		C160.69,170.83,160.34,170.79,159.98,170.79"/>
	<path class="st131" d="M165.94,172h-7.02v0.83h6.57c0.14-0.16,0.29-0.32,0.45-0.46V172"/>
	<path class="st137" d="M166.22,170.9h-0.25c-0.01,0.15-0.02,0.3-0.03,0.45V172h0.28V170.9"/>
	<path class="st143" d="M166.22,172h-0.28v0.37c0.09-0.08,0.18-0.16,0.28-0.24V172"/>
	<path class="st43" d="M169.66,170.9h-3.44V172h0.17C167.3,171.32,168.43,170.92,169.66,170.9"/>
	<path class="st132" d="M166.39,172h-0.17v0.13C166.27,172.09,166.33,172.05,166.39,172"/>
	<path class="st132" d="M165.49,172.83h-6.57v3.89h5.18v-0.28C164.12,175.06,164.64,173.8,165.49,172.83"/>
	<path class="st144" d="M164.1,176.72h-5.18v4.91h2.26c0.68-1.08,1.71-1.91,2.92-2.35V176.72"/>
	<path class="st92" d="M160.3,328.18h-1.09c0.32,0.36,0.69,0.68,1.09,0.94V328.18"/>
	<path class="st145" d="M158.92,324.96v2.87c0.09,0.12,0.19,0.24,0.29,0.36h1.09v-1.93C159.77,325.9,159.3,325.46,158.92,324.96"/>
	<path class="st146" d="M161.18,181.63h-2.26v5.36h1.38v-2.49C160.34,183.44,160.65,182.46,161.18,181.63"/>
	<polyline class="st147" points="160.3,250.09 158.92,250.09 158.92,250.1 160.3,250.1 160.3,250.09 	"/>
	<path class="st145" d="M160.3,250.1h-1.38v74.86c0.38,0.51,0.85,0.95,1.38,1.3V250.1"/>
	<polyline class="st148" points="160.3,186.99 158.92,186.99 158.92,250.09 160.3,250.09 160.3,186.99 	"/>
	<path class="st43" d="M240.43,170.9c-0.03,0-0.06,0-0.09,0h-69.67h69.85C240.49,170.9,240.46,170.9,240.43,170.9"/>
	<path class="st149" d="M248.53,174.33c0.81,1.69,1.3,3.57,1.41,5.55c0.06,0.03,0.13,0.06,0.19,0.09v-3.54
		C249.69,175.67,249.15,174.96,248.53,174.33"/>
	<path class="st150" d="M242.02,171.01c0.55,0.3,1.08,0.63,1.59,1h1.7C244.29,171.51,243.18,171.17,242.02,171.01"/>
	<path class="st151" d="M245.31,172h-1.7c2.55,1.84,4.5,4.47,5.48,7.54c0.29,0.1,0.58,0.21,0.86,0.34c-0.11-1.98-0.6-3.86-1.41-5.55
		C247.61,173.38,246.52,172.59,245.31,172"/>
	<path class="st143" d="M165.94,172.37c-0.16,0.15-0.31,0.3-0.45,0.46h0.45V172.37"/>
	<path class="st132" d="M166.22,172.13c-0.09,0.08-0.19,0.15-0.28,0.24v0.46h0.28V172.13"/>
	<path class="st152" d="M170.67,170.9h-0.83l0,0h-0.18c-1.22,0.02-2.35,0.43-3.27,1.11h4.28V170.9"/>
	<path class="st153" d="M170.67,172h-4.28c-0.06,0.04-0.11,0.09-0.17,0.13v0.7h4.45V172"/>
	<path class="st152" d="M240.52,170.9h-69.85V172h72.94c-0.51-0.36-1.04-0.7-1.59-1C241.53,170.94,241.03,170.9,240.52,170.9"/>
	<path class="st153" d="M243.61,172h-72.94v0.83h63.93c0.15,0,0.31,0,0.46,0c4.95,0.03,9.3,2.48,11.97,6.22
		c0.71,0.1,1.39,0.27,2.05,0.49C248.11,176.48,246.16,173.84,243.61,172"/>
	<path class="st153" d="M165.94,172.83h-0.45c-0.84,0.97-1.36,2.23-1.39,3.61v0.28h1.84V172.83"/>
	<path class="st154" d="M165.94,176.72h-1.84v2.56c0.58-0.21,1.2-0.32,1.84-0.33V176.72"/>
	<polyline class="st134" points="166.22,172.83 165.94,172.83 165.94,176.72 166.22,176.72 166.22,172.83 	"/>
	<path class="st146" d="M166.22,176.72h-0.28v2.23c0.03,0,0.07,0,0.1,0h0.18V176.72"/>
	<polyline class="st154" points="170.67,172.83 166.22,172.83 166.22,176.72 170.67,176.72 170.67,172.83 	"/>
	<path class="st146" d="M235.06,172.83c-0.16,0-0.32,0-0.46,0h-63.93v3.89h63.93c0.13,0,0.26,0,0.38,0c2.86,0,5.54,0.82,7.81,2.23
		h2.54v-0.01h0.09c0.55,0,1.09,0.04,1.61,0.11C244.37,175.31,240.01,172.86,235.06,172.83"/>
	<polyline class="st148" points="170.67,176.72 166.22,176.72 166.22,178.95 170.67,178.95 170.67,176.72 	"/>
	<path class="st148" d="M234.98,176.72c-0.13,0-0.26,0-0.38,0h-63.93v2.23h72.12C240.52,177.53,237.84,176.72,234.98,176.72"/>
	<path class="st154" d="M164.1,179.28c-1.21,0.44-2.24,1.27-2.92,2.35h2.92V179.28"/>
	<path class="st93" d="M164.1,328.18h-3.8v0.94c0.87,0.57,1.92,0.91,3.05,0.91h0.09l0.66-0.12V328.18"/>
	<path class="st155" d="M160.3,326.25v1.93h3.8v-1.14l-0.66,0.12h-0.09C162.22,327.16,161.18,326.83,160.3,326.25"/>
	<path class="st148" d="M164.1,181.63h-2.92c-0.53,0.83-0.84,1.81-0.88,2.87v2.49h3.8V181.63"/>
	<polyline class="st156" points="164.1,250.09 160.3,250.09 160.3,250.1 164.1,250.1 164.1,250.09 	"/>
	<path class="st155" d="M164.1,250.1h-3.8v76.16c0.87,0.58,1.92,0.91,3.05,0.91h0.09l0.66-0.12V250.1"/>
	<polyline class="st157" points="164.1,186.99 160.3,186.99 160.3,250.09 164.1,250.09 164.1,186.99 	"/>
	<path class="st158" d="M250.14,250.1L250.14,250.1v54.22c0,0.37-0.06,0.74-0.18,1.11v2.87c0.12-0.37,0.18-0.74,0.18-1.11V250.1"/>
	<polyline class="st159" points="250.14,250.09 249.96,250.09 249.96,250.1 250.14,250.1 250.14,250.09 	"/>
	<path class="st160" d="M250.14,250.1h-0.18v55.33c0.12-0.37,0.18-0.74,0.18-1.11V250.1"/>
	<path class="st161" d="M249.94,179.88c0.01,0.12,0.01,0.24,0.02,0.36v69.84h0.18v-70.12C250.07,179.94,250.01,179.91,249.94,179.88
		"/>
	<path class="st162" d="M249.96,305.43c-0.05,0.16-0.11,0.32-0.19,0.48v2.87c0.07-0.16,0.14-0.32,0.19-0.48V305.43"/>
	<polyline class="st163" points="249.96,250.09 249.77,250.09 249.77,250.1 249.96,250.1 249.96,250.09 	"/>
	<path class="st162" d="M249.96,250.1h-0.19v55.81c0.07-0.16,0.14-0.32,0.19-0.48V250.1"/>
	<path class="st42" d="M249.08,179.55c0.43,1.36,0.67,2.8,0.69,4.3v3.71c0,0.06,0,0.12,0,0.18v62.36h0.19v-69.84
		c0-0.12-0.01-0.24-0.02-0.36C249.66,179.76,249.38,179.65,249.08,179.55"/>
	<path class="st164" d="M247.03,179.05c1.71,2.4,2.72,5.33,2.74,8.5v-3.71c-0.02-1.5-0.26-2.94-0.69-4.3
		C248.43,179.32,247.74,179.15,247.03,179.05"/>
	<path class="st153" d="M249.77,187.55v62.54v-62.36C249.77,187.67,249.77,187.61,249.77,187.55"/>
	<path class="st146" d="M165.94,178.95c-0.64,0.01-1.26,0.13-1.84,0.33v2.35h1.84V178.95"/>
	<path class="st148" d="M166.22,178.95h-0.18c-0.03,0-0.07,0-0.1,0v2.68h0.28V178.95"/>
	<path class="st146" d="M245.42,178.94h-0.09v0.01h-2.54c4.06,2.53,6.82,6.98,6.98,12.12v4.9l0,0v54.13v-62.54
		c-0.02-3.17-1.03-6.1-2.74-8.5C246.51,178.98,245.97,178.94,245.42,178.94"/>
	<polyline class="st157" points="170.67,178.95 166.22,178.95 166.22,181.63 170.67,181.63 170.67,178.95 	"/>
	<path class="st165" d="M242.79,178.95h-72.12v2.68h63.93c0.13,0,0.26,0,0.38,0c7.97,0,14.54,6.34,14.79,14.34v-4.9
		C249.61,185.93,246.85,181.48,242.79,178.95"/>
	<polyline class="st93" points="165.94,328.18 164.1,328.18 164.1,329.91 165.94,329.59 165.94,328.18 	"/>
	<polyline class="st94" points="165.94,326.72 164.1,327.05 164.1,328.18 165.94,328.18 165.94,326.72 	"/>
	<polyline class="st105" points="166.22,328.18 165.94,328.18 165.94,329.59 166.22,329.54 166.22,328.18 	"/>
	<polyline class="st166" points="166.22,326.67 165.94,326.72 165.94,328.18 166.22,328.18 166.22,326.67 	"/>
	<polyline class="st106" points="170.67,328.18 166.22,328.18 166.22,329.54 170.67,328.75 170.67,328.18 	"/>
	<polyline class="st107" points="170.67,325.87 166.22,326.67 166.22,328.18 170.67,328.18 170.67,325.87 	"/>
	<polyline class="st106" points="173.84,328.18 170.67,328.18 170.67,328.75 173.84,328.18 	"/>
	<path class="st107" d="M249.77,305.91c-2.5,5.49-17.12,9.88-22.86,9.88l-56.24,10.08v2.31h3.17l53.07-9.44
		c5.74,0,20.36-4.48,22.86-9.97V305.91"/>
	<polyline class="st157" points="165.94,181.63 164.1,181.63 164.1,186.99 165.94,186.99 165.94,181.63 	"/>
	<polyline class="st167" points="165.94,250.09 164.1,250.09 164.1,250.1 165.94,250.1 165.94,250.09 	"/>
	<polyline class="st94" points="165.94,250.1 164.1,250.1 164.1,327.05 165.94,326.72 165.94,250.1 	"/>
	<polyline class="st165" points="165.94,186.99 164.1,186.99 164.1,250.09 165.94,250.09 165.94,186.99 	"/>
	<polyline class="st165" points="166.22,181.63 165.94,181.63 165.94,186.99 166.22,186.99 166.22,181.63 	"/>
	<polyline class="st168" points="166.22,250.09 165.94,250.09 165.94,250.1 166.22,250.1 166.22,250.09 	"/>
	<polyline class="st166" points="166.22,250.1 165.94,250.1 165.94,326.72 166.22,326.67 166.22,250.1 	"/>
	<polyline class="st169" points="166.22,186.99 165.94,186.99 165.94,250.09 166.22,250.09 166.22,186.99 	"/>
	<polyline class="st169" points="170.67,181.63 166.22,181.63 166.22,186.99 170.67,186.99 170.67,181.63 	"/>
	<path class="st170" d="M234.98,181.62c-0.13,0-0.26,0-0.38,0h-63.93v5.36h63.93c0.13,0,0.26-0.01,0.39-0.01
		c7.83,0,14.34,6.12,14.78,13.98v49.12v-54.13C249.52,187.96,242.95,181.62,234.98,181.62"/>
	<polyline class="st171" points="170.67,250.09 166.22,250.09 166.22,250.1 170.67,250.1 170.67,250.09 	"/>
	<polyline class="st107" points="170.67,250.1 166.22,250.1 166.22,326.67 170.67,325.87 170.67,250.1 	"/>
	<polyline class="st170" points="170.67,186.99 166.22,186.99 166.22,250.09 170.67,250.09 170.67,186.99 	"/>
	<polyline class="st171" points="249.77,250.09 170.67,250.09 170.67,250.1 249.77,250.1 249.77,250.09 	"/>
	<path class="st107" d="M249.77,250.1h-79.1v75.77l56.24-10.08c5.74,0,20.36-4.4,22.86-9.88V250.1"/>
	<path class="st172" d="M234.99,186.98c-0.13,0-0.26,0-0.39,0.01h-63.93v63.1h79.1v-49.12
		C249.33,193.11,242.82,186.98,234.99,186.98"/>
	<path class="st2" d="M82.67,160.81H234.6c8.29-0.05,15.07,6.61,15.17,14.9v148.68c-0.05,8.33-6.84,15.04-15.17,14.99H82.67
		c-4.01-0.09-7.83-1.67-10.73-4.44c-2.85-2.77-4.45-6.58-4.44-10.54V175.61C67.65,167.35,74.41,160.76,82.67,160.81z"/>
	<polygon class="st173" points="205.45,305.89 185,305.89 161.04,228.91 135.96,305.89 115.41,305.89 92.57,194.31 113.11,194.31 
		129.03,272.39 152.99,196.53 170.11,196.53 192.95,272.39 208.87,194.31 228.3,194.31 	"/>
</g>
</svg>
