<svg xmlns="http://www.w3.org/2000/svg" viewBox="0 0 462.11 399"><defs><style>.cls-1,.cls-2{opacity:0.2;}.cls-15,.cls-3{fill:#fff;}.cls-4{fill:#fda803;}.cls-5{fill:#02313d;}.cls-6{fill:#fdfdfd;}.cls-7{fill:#8fd1e8;}.cls-8{fill:#fdbfac;}.cls-9{fill:#ff653f;}.cls-10{fill:#182632;}.cls-11{fill:#fa8403;}.cls-12{fill:#f63e28;}.cls-13{fill:#d8d8d8;}.cls-14{fill:#060e16;}.cls-15{opacity:0.3;}.cls-16{fill:#ffaa01;}.cls-17{fill:#243042;}.cls-18{fill:#fc8601;}.cls-19{fill:#ff633e;}.cls-20{fill:#ff4d43;}</style></defs><title>333105-P9X44Y-488</title><g id="OBJECTS"><circle class="cls-1" cx="228.76" cy="226.35" r="144.66"/><g class="cls-2"><path d="M109.5,97.21c-1.71,1.57-3.39,3.19-5,4.84a175.34,175.34,0,0,0-33.88,47.54c1,.45,2,.92,2.93,1.41a171.71,171.71,0,0,1,33.25-46.65c1.65-1.65,3.32-3.26,5-4.83C111,98.76,110.25,98,109.5,97.21Z"/><path d="M57.33,206.64H54.06A179.16,179.16,0,0,0,53,226.35,175,175,0,0,0,64.28,288.5h3.49a171.53,171.53,0,0,1-11.55-62.15A176.74,176.74,0,0,1,57.33,206.64Z"/><path d="M160.33,64.39q-4.1,1.73-8.07,3.65l2.08,2.61q3.58-1.71,7.25-3.27a171.51,171.51,0,0,1,35.92-10.75v-3.3A173.74,173.74,0,0,0,160.33,64.39Z"/><path d="M297.2,64.39a174,174,0,0,0-42.44-11.92v3.28a170.82,170.82,0,0,1,41.17,11.63c3.11,1.31,6.16,2.72,9.17,4.2.88-.79,1.78-1.55,2.7-2.29Q302.59,66.68,297.2,64.39Z"/><path d="M390.72,157.91a175,175,0,0,0-37.66-55.86c-.33-.34-.67-.67-1-1-.88.65-1.79,1.28-2.71,1.9.48.46,1,.93,1.43,1.41a171.89,171.89,0,0,1,37,54.83c1.54,3.63,2.94,7.31,4.22,11,.85-.81,1.72-1.61,2.61-2.38C393.39,164.49,392.11,161.18,390.72,157.91Z"/><path d="M400.47,209.25q.82,8.48.83,17.1a171.52,171.52,0,0,1-11.54,62.15h3.48a174.75,174.75,0,0,0,11.31-62.15q0-8.62-.82-17.1Z"/></g><path class="cls-1" d="M58.92,154.16A22.59,22.59,0,1,0,81.5,176.74,22.61,22.61,0,0,0,58.92,154.16Zm.91,30.92v-7.91H70a30,30,0,0,1-1.21,7.91Zm6.4,9a25.54,25.54,0,0,0,3.92-7.2H77A20.69,20.69,0,0,1,63.51,197,23.48,23.48,0,0,0,66.23,194.1Zm2-7.2a23.25,23.25,0,0,1-3.37,6,18.9,18.9,0,0,1-5,4.57V186.9Zm-8.38-21.28V156c.27,0,.54,0,.81.05a28.13,28.13,0,0,1,7.08,9.57Zm9.87,0a29.55,29.55,0,0,0-3-5.54,30.9,30.9,0,0,0-2.86-3.52,20.83,20.83,0,0,1,12.65,9.06Zm-9.87,9.73v-7.91h8.63A26.16,26.16,0,0,1,70,175.35Zm12,0a27.54,27.54,0,0,0-1.45-7.91h7.09a20.42,20.42,0,0,1,2.16,7.91Zm7.84,1.82a20.46,20.46,0,0,1-1.74,7.91H70.72a32,32,0,0,0,1.13-7.91Zm-32.35,7.91H39.9a20.46,20.46,0,0,1-1.74-7.91h8A32,32,0,0,0,47.33,185.08Zm3-19.46a28.38,28.38,0,0,1,2.52-4.46A26.58,26.58,0,0,1,57.44,156l.57,0v9.62ZM58,167.44v7.91H48a26.28,26.28,0,0,1,1.57-7.91Zm-16.62-1.82a20.86,20.86,0,0,1,12.92-9.13,30.26,30.26,0,0,0-2.92,3.59,29.55,29.55,0,0,0-3,5.54ZM58,177.17v7.91H49.22A29.83,29.83,0,0,1,48,177.17ZM38.2,175.35a20.42,20.42,0,0,1,2.16-7.91h7.3a28.24,28.24,0,0,0-1.45,7.91Zm9.7,11.55a25.32,25.32,0,0,0,3.93,7.2,22.4,22.4,0,0,0,2.78,3,20.93,20.93,0,0,1-13.8-10.16Zm10.11,0v10.46a21.4,21.4,0,0,1-8.17-10.46Z"/><path class="cls-1" d="M428.67,186.47a9.18,9.18,0,0,0-7.78-8.84,14.16,14.16,0,0,0-25.52-.07,9.19,9.19,0,0,0-8.21,8.65,7.86,7.86,0,0,0,1.89,15.5h14.44v-9H399l4.27-6.14,4.26-6.14,4.27,6.14,4.27,6.14h-4.54v9h14.44a7.87,7.87,0,0,0,2.75-15.24Z"/><path class="cls-1" d="M141.33,95a2.45,2.45,0,0,0,0-2.71l-8.9-13a13.34,13.34,0,0,0-9.13-22.36,13.56,13.56,0,0,0-3,.17,13.35,13.35,0,0,0-9.57,19.32,13.91,13.91,0,0,0,.82,1.38,13.37,13.37,0,0,0,15.89,4.89l8.9,13a2.45,2.45,0,0,0,2.52,1l.1.15a1.51,1.51,0,1,0,2.49-1.7ZM127.67,77.71a9.19,9.19,0,1,1,2.4-12.77A9.15,9.15,0,0,1,127.67,77.71Z"/><g class="cls-2"><path d="M224.54,62.26a13.82,13.82,0,0,1-12.63-19.48l.58,5.77a1.34,1.34,0,0,0,1.33,1.21H214a1.35,1.35,0,0,0,1.2-1.47l-.9-8.93a1.34,1.34,0,0,0-1.46-1.2l-8.94.89a1.34,1.34,0,1,0,.27,2.67l4.55-.46a17.19,17.19,0,0,0-1.56,7.17,17.45,17.45,0,0,0,17.42,17.42,17.15,17.15,0,0,0,6.62-1.32c-.83-1-1.69-1.93-2.58-2.86A13.81,13.81,0,0,1,224.54,62.26Z"/><path d="M247.29,52.48a1.34,1.34,0,0,0-1.83-.47l-4.73,2.8A17.19,17.19,0,0,0,242,48.42a17.38,17.38,0,0,0-23.33-16.37c1,.94,1.91,1.9,2.84,2.87a14.07,14.07,0,0,1,3.06-.35,13.86,13.86,0,0,1,13.85,13.85,13.6,13.6,0,0,1-1,5L235,49.32a1.36,1.36,0,0,0-1.84-.47,1.34,1.34,0,0,0-.47,1.84l4.57,7.73a1.33,1.33,0,0,0,1.15.65,1.36,1.36,0,0,0,.68-.18l7.73-4.57A1.34,1.34,0,0,0,247.29,52.48Z"/></g><g class="cls-2"><path d="M355.65,77.78V72.94h-4.23a10.81,10.81,0,0,0-1.64-4L353,65.71l-3.43-3.42-3.3,3.31a10.84,10.84,0,0,0-2.71-1.15V60h-4.84v4.23a11,11,0,0,0-4,1.64l-2.8-2.8-3.42,3.42,2.9,2.9A10.71,10.71,0,0,0,330,72.94h-4.22v4.84h4.41A11,11,0,0,0,332,81.45l-3.22,3.23,3.42,3.42,3.5-3.5a10.69,10.69,0,0,0,3,1.05v4.22h4.84V85.46a10.84,10.84,0,0,0,2.71-1.15l3.3,3.31L353,84.2,349.78,81a10.84,10.84,0,0,0,1.45-3.21Zm-14.92,1.61A4.44,4.44,0,1,1,345.16,75,4.44,4.44,0,0,1,340.73,79.39Z"/><path d="M328.34,92.76V90.34h-2.12a5.31,5.31,0,0,0-.82-2l1.61-1.6L325.3,85l-1.66,1.65a5.37,5.37,0,0,0-1.35-.57V83.89h-2.42V86a5.46,5.46,0,0,0-2,.81l-1.4-1.4-1.71,1.71,1.45,1.45a5.44,5.44,0,0,0-.67,1.76h-2.11v2.42h2.21a5.25,5.25,0,0,0,.89,1.84l-1.61,1.62,1.71,1.71,1.75-1.75a5.44,5.44,0,0,0,1.5.52v2.11h2.42V96.6a5.37,5.37,0,0,0,1.35-.57l1.66,1.65L327,96l-1.61-1.6a5.46,5.46,0,0,0,.73-1.61Zm-7.46.81a2.22,2.22,0,1,1,2.21-2.22A2.22,2.22,0,0,1,320.88,93.57Z"/></g><path class="cls-3" d="M81.26,113.11c-10.77,1.22-11.75,2.2-13,13-1.21-10.77-2.2-11.75-13-13,10.76-1.21,11.75-2.2,13-13C69.51,110.91,70.49,111.9,81.26,113.11Z"/><path class="cls-3" d="M431.07,151c-10.77,1.21-11.75,2.2-13,13-1.22-10.76-2.2-11.75-13-13,10.77-1.22,11.75-2.2,13-13C419.32,148.8,420.3,149.78,431.07,151Z"/><ellipse class="cls-1" cx="231.05" cy="321.26" rx="224.79" ry="17.23"/><path class="cls-4" d="M76,247.69h7.93a0,0,0,0,1,0,0V304a3.52,3.52,0,0,1-3.52,3.52h-.89A3.52,3.52,0,0,1,76,304V247.69A0,0,0,0,1,76,247.69Z" transform="translate(31.04 -7.11) rotate(6.32)"/><rect class="cls-5" x="79.93" y="236.07" width="7.93" height="11.84" transform="translate(27.15 -7.77) rotate(6.32)"/><path class="cls-6" d="M92.39,226.62a15.64,15.64,0,0,1-3.91,9.93l-7.88-.87s-2.57-4.84-1.13-9.07a12.79,12.79,0,0,1,1-2.32h0c3-5.08,7.27-1.35,6.69-12.26C87.21,212,92.61,218.74,92.39,226.62Z"/><path class="cls-7" d="M92.39,226.62c-2,2.3-6.2-.59-7.62-2.11-1.7-1.82-4.15-.29-4.25-.22,3-5.08,7.27-1.35,6.69-12.26C87.21,212,92.61,218.74,92.39,226.62Z"/><rect class="cls-4" x="40.72" y="244.47" width="7.44" height="56.09" transform="translate(-28.77 6.28) rotate(-6.11)"/><polygon class="cls-8" points="45.15 244.24 37.75 245.03 39.62 239.49 40.59 236.63 42.15 239.22 45.15 244.24"/><rect class="cls-5" x="43.48" y="296.35" width="7.44" height="4.08" transform="translate(-31.5 6.72) rotate(-6.11)"/><path class="cls-9" d="M43.87,300.4h7.44a0,0,0,0,1,0,0v.36a2.89,2.89,0,0,1-2.89,2.89H46.76a2.88,2.88,0,0,1-2.88-2.88v-.36A0,0,0,0,1,43.87,300.4Z" transform="translate(-31.89 6.79) rotate(-6.11)"/><polygon class="cls-10" points="42.15 239.22 39.62 239.49 40.59 236.63 42.15 239.22"/><rect class="cls-11" x="43.11" y="293.44" width="7.44" height="2.92" transform="translate(-31.14 6.66) rotate(-6.11)"/><path class="cls-11" d="M39.35,247.64l4.42,41.3a.59.59,0,0,0,.63.51h0a.57.57,0,0,0,.5-.63l-4.42-41.3a.57.57,0,0,0-.63-.51h0A.58.58,0,0,0,39.35,247.64Z"/><path class="cls-11" d="M43,247.25l4.42,41.3a.56.56,0,0,0,.62.5h0a.56.56,0,0,0,.51-.62l-4.42-41.31a.58.58,0,0,0-.63-.5h0A.56.56,0,0,0,43,247.25Z"/><rect class="cls-4" x="66" y="239.82" width="7.44" height="56.09" transform="translate(115.88 540.78) rotate(-175.01)"/><polygon class="cls-8" points="63.58 295.48 70.99 296.13 68.09 301.2 66.58 303.83 65.56 300.98 63.58 295.48"/><rect class="cls-5" x="68.27" y="239.91" width="7.44" height="4.08" transform="translate(122.65 489.25) rotate(-175.01)"/><path class="cls-9" d="M68.58,236.68H76a0,0,0,0,1,0,0V237a2.88,2.88,0,0,1-2.88,2.88H71.47A2.89,2.89,0,0,1,68.58,237v-.36A0,0,0,0,1,68.58,236.68Z" transform="translate(123.61 481.99) rotate(-175.01)"/><polygon class="cls-10" points="65.56 300.98 68.09 301.2 66.58 303.83 65.56 300.98"/><rect class="cls-11" x="70.22" y="241.72" width="2.92" height="7.44" transform="translate(-179.06 295.5) rotate(-85.01)"/><path class="cls-11" d="M69.92,293.26l3.62-41.38a.59.59,0,0,0-.52-.62h0a.59.59,0,0,0-.62.52l-3.61,41.38a.57.57,0,0,0,.52.62h0A.57.57,0,0,0,69.92,293.26Z"/><path class="cls-11" d="M66.26,292.94l3.61-41.38a.57.57,0,0,0-.51-.62h0a.58.58,0,0,0-.62.52l-3.61,41.38a.56.56,0,0,0,.51.62h0A.57.57,0,0,0,66.26,292.94Z"/><rect class="cls-9" x="50.96" y="244.47" width="7.44" height="56.09" transform="translate(-28.71 7.37) rotate(-6.11)"/><polygon class="cls-8" points="55.39 244.24 47.99 245.03 49.86 239.49 50.83 236.63 52.39 239.22 55.39 244.24"/><rect class="cls-5" x="53.73" y="296.35" width="7.44" height="4.08" transform="translate(-31.45 7.81) rotate(-6.11)"/><path class="cls-9" d="M54.12,300.4h7.44a0,0,0,0,1,0,0v.36a2.89,2.89,0,0,1-2.89,2.89H57a2.88,2.88,0,0,1-2.88-2.88v-.36A0,0,0,0,1,54.12,300.4Z" transform="translate(-31.83 7.88) rotate(-6.11)"/><polygon class="cls-9" points="52.39 239.22 49.86 239.49 50.83 236.63 52.39 239.22"/><rect class="cls-11" x="53.35" y="293.44" width="7.44" height="2.92" transform="translate(-31.08 7.75) rotate(-6.11)"/><path class="cls-12" d="M49.59,247.64,54,288.94a.59.59,0,0,0,.63.51h0a.57.57,0,0,0,.5-.63l-4.42-41.3a.56.56,0,0,0-.62-.51h0A.58.58,0,0,0,49.59,247.64Z"/><path class="cls-12" d="M53.25,247.25l4.42,41.3a.56.56,0,0,0,.63.5h0a.56.56,0,0,0,.5-.62l-4.42-41.31a.58.58,0,0,0-.63-.5h0A.56.56,0,0,0,53.25,247.25Z"/><polygon class="cls-5" points="90.35 265.68 89.81 270.48 88.62 280.98 84.13 320.65 45.24 320.65 40.75 280.98 39.56 270.48 39.02 265.68 90.35 265.68"/><rect class="cls-5" x="35.13" y="262.57" width="59.11" height="8.3" rx="3.68"/><polygon class="cls-1" points="89.81 270.48 88.62 280.98 40.75 280.98 39.56 270.48 89.81 270.48"/><path class="cls-5" d="M353.44,133.58V259.67H104.37V133.58a12.05,12.05,0,0,1,12-12.05h225A12.05,12.05,0,0,1,353.44,133.58Z"/><rect class="cls-1" x="104.41" y="196.82" width="249.06" height="62.85"/><path class="cls-6" d="M345,135.28V244.53a2.71,2.71,0,0,1-2.71,2.72H115.53a2.67,2.67,0,0,1-1.53-.48,2.7,2.7,0,0,1-1.19-2.24V135.28a2.72,2.72,0,0,1,2.72-2.72H342.28a2.69,2.69,0,0,1,2.26,1.22A2.65,2.65,0,0,1,345,135.28Z"/><path class="cls-6" d="M353.48,259.67a19.7,19.7,0,0,1-19.7,19.7H124.11a19.69,19.69,0,0,1-19.7-19.7Z"/><path class="cls-13" d="M351.23,268.82a19.72,19.72,0,0,1-17.45,10.55H124.11a19.69,19.69,0,0,1-17.45-10.55Z"/><rect class="cls-5" x="210.26" y="266.24" width="37.29" height="5.16" rx="2.29"/><rect class="cls-5" x="192.12" y="279.37" width="73.64" height="30.72"/><rect class="cls-1" x="192.12" y="279.37" width="73.64" height="11.26"/><path class="cls-13" d="M175,310.1h107.9a9.37,9.37,0,0,1,9.37,9.37v1.18a0,0,0,0,1,0,0H165.62a0,0,0,0,1,0,0v-1.18A9.37,9.37,0,0,1,175,310.1Z"/><rect class="cls-7" x="122.82" y="154.97" width="214.16" height="7.26"/><rect class="cls-7" x="224.2" y="168.6" width="46.95" height="7.26"/><rect class="cls-7" x="172.24" y="168.6" width="45.22" height="7.26"/><rect class="cls-7" x="172.24" y="181.57" width="45.22" height="7.26"/><rect class="cls-7" x="224.2" y="181.57" width="46.95" height="7.26"/><rect class="cls-7" x="224.2" y="194.85" width="46.95" height="7.26"/><rect class="cls-7" x="172.24" y="194.85" width="45.22" height="7.26"/><rect class="cls-7" x="224.2" y="207.82" width="46.95" height="7.26"/><rect class="cls-7" x="172.24" y="207.82" width="45.22" height="7.26"/><rect class="cls-7" x="224.2" y="221.62" width="46.95" height="7.26"/><rect class="cls-7" x="172.24" y="221.62" width="45.22" height="7.26"/><rect class="cls-9" x="121.74" y="204.28" width="45.22" height="7.26"/><rect class="cls-9" x="121.74" y="217.25" width="45.22" height="7.26"/><rect class="cls-9" x="121.74" y="231.05" width="45.22" height="7.26"/><rect class="cls-9" x="275.56" y="168.26" width="57.45" height="7.26"/><path class="cls-9" d="M325.76,185.91c.34,2.87-4.8,2.87-4.8,2.87h-45.4v-7.26h53.22S325.43,183.05,325.76,185.91Z"/><rect class="cls-7" x="122.29" y="168.26" width="42.59" height="30.48"/><polygon class="cls-14" points="164.88 190.67 162.81 187.19 155.95 175.63 142.23 198.74 164.88 198.74 164.88 190.67"/><polygon class="cls-10" points="139.39 198.74 122.29 198.74 130.84 184.96 139.39 171.18 147.94 184.96 156.5 198.74 139.39 198.74"/><polygon class="cls-3" points="133.85 180.11 139.39 184.26 144.94 180.11 139.39 171.18 133.85 180.11"/><polygon class="cls-3" points="151.28 183.5 155.95 187.19 160.62 183.5 155.95 175.63 151.28 183.5"/><rect class="cls-7" x="275.56" y="198.74" width="57.45" height="41.11"/><polygon class="cls-14" points="333 228.98 330.21 224.27 320.96 208.69 302.46 239.85 333 239.85 333 228.98"/><polygon class="cls-10" points="298.63 239.85 275.56 239.85 287.09 221.27 298.63 202.68 310.16 221.27 321.69 239.85 298.63 239.85"/><polygon class="cls-3" points="291.15 214.73 298.63 220.33 306.1 214.73 298.63 202.68 291.15 214.73"/><polygon class="cls-3" points="314.66 219.3 320.96 224.27 327.26 219.3 320.96 208.69 314.66 219.3"/><path class="cls-13" d="M345,135.28v8.28H112.82v-8.28a2.71,2.71,0,0,1,2.71-2.72H342.28A2.71,2.71,0,0,1,345,135.28Z"/><rect class="cls-6" x="161.97" y="135.53" width="130.67" height="3.63" rx="1.61"/><path class="cls-5" d="M311.58,137.39a1.86,1.86,0,1,1-1.86-1.86A1.86,1.86,0,0,1,311.58,137.39Z"/><path class="cls-5" d="M320.91,137.39a1.86,1.86,0,1,1-1.86-1.86A1.85,1.85,0,0,1,320.91,137.39Z"/><path class="cls-5" d="M329.29,137.39a1.86,1.86,0,1,1-1.85-1.86A1.85,1.85,0,0,1,329.29,137.39Z"/><path class="cls-6" d="M232.24,127.06a2.34,2.34,0,1,1-2.34-2.34A2.33,2.33,0,0,1,232.24,127.06Z"/><path class="cls-15" d="M345,135.28V244.53a2.71,2.71,0,0,1-2.71,2.72H115.53a2.67,2.67,0,0,1-1.53-.48l230.54-113A2.65,2.65,0,0,1,345,135.28Z"/><path class="cls-1" d="M247.55,268.82v.29a2.3,2.3,0,0,1-2.29,2.29H212.55a2.3,2.3,0,0,1-2.29-2.29v-.29Z"/><path class="cls-1" d="M353.44,167.23v9l-2.72,1.44s-2.56,4.84-6.87,6a11.55,11.55,0,0,1-2.51.44h0c-5.89.37-5.19-5.26-13.9,1.33h0c.08-.25,2.63-8.29,9.17-12.46A15.67,15.67,0,0,1,347,170.61Z"/><path class="cls-4" d="M410.57,143l-49.38,26-1.75-3.32-1.95-3.7,49.38-26a4,4,0,0,1,5.36,1.65c0,.06,0,.12.08.17A4,4,0,0,1,410.57,143Z"/><polygon class="cls-5" points="361.19 169.03 350.72 174.55 348.97 171.24 347.02 167.53 357.49 162.01 359.44 165.71 361.19 169.03"/><path class="cls-6" d="M350.72,174.55s-2.56,4.84-6.87,6a11.55,11.55,0,0,1-2.51.44h0c-5.89.36-5.19-5.26-13.9,1.33h0c.08-.25,2.63-8.29,9.17-12.46A15.67,15.67,0,0,1,347,167.53l2,3.7Z"/><path class="cls-9" d="M341.34,181c-5.89.36-5.19-5.26-13.9,1.33h0c.08-.25,2.63-8.29,9.17-12.46,3,.35,3,5.24,2.55,7.35a.59.59,0,0,1,0,.14C338.58,179.79,341.23,181,341.34,181Z"/><path class="cls-1" d="M410.57,143l-49.38,26-10.47,5.52L349,171.24l10.47-5.53,52.87-27.9A4,4,0,0,1,410.57,143Z"/><path class="cls-1" d="M350.72,174.55s-2.56,4.84-6.87,6a11.55,11.55,0,0,1-2.51.44h0c-5.89.36-5.19-5.26-13.9,1.33h0c.12-.18,3.13-4.81,6.43-5.32a39.6,39.6,0,0,1,5.29.21c4,.18,8.61-.35,9.81-6h0Z"/><path class="cls-1" d="M159.6,259.67l-16.46,19.7h12l5.66-6.77v6.77H170V247.24Z"/><path class="cls-16" d="M104.89,320.65h61.32V247.24l-58.55,70.1Zm52.12-9.2H124.56L157,272.6Z"/><rect class="cls-17" x="162.24" y="261.49" width="3.13" height="0.72"/><rect class="cls-17" x="162.24" y="265.67" width="3.13" height="0.72"/><rect class="cls-17" x="162.24" y="269.84" width="3.13" height="0.72"/><rect class="cls-17" x="162.24" y="274.02" width="3.13" height="0.72"/><rect class="cls-17" x="162.24" y="278.2" width="3.13" height="0.72"/><rect class="cls-17" x="162.24" y="282.37" width="3.13" height="0.72"/><rect class="cls-17" x="162.24" y="286.55" width="3.13" height="0.72"/><rect class="cls-17" x="162.24" y="290.72" width="3.13" height="0.72"/><rect class="cls-17" x="162.24" y="294.9" width="3.13" height="0.72"/><rect class="cls-17" x="162.24" y="299.08" width="3.13" height="0.72"/><rect class="cls-17" x="162.24" y="303.25" width="3.13" height="0.72"/><rect class="cls-17" x="162.24" y="307.43" width="3.13" height="0.72"/><rect class="cls-17" x="162.24" y="311.6" width="3.13" height="0.72"/><rect class="cls-17" x="162.24" y="315.78" width="3.13" height="0.72"/><polygon class="cls-18" points="104.89 320.65 166.21 320.65 166.21 317.34 107.66 317.34 104.89 320.65"/><path class="cls-16" d="M353.44,176.38V320.72h16.9V176.38Zm8.45,9.6a3.29,3.29,0,1,1,3.28-3.28A3.28,3.28,0,0,1,361.89,186Z"/><rect class="cls-17" x="355.01" y="190.04" width="3.71" height="0.86"/><rect class="cls-17" x="355.01" y="195" width="3.71" height="0.86"/><rect class="cls-17" x="355.01" y="199.96" width="3.71" height="0.86"/><rect class="cls-17" x="355.01" y="204.92" width="3.71" height="0.86"/><rect class="cls-17" x="355.01" y="209.89" width="3.71" height="0.86"/><rect class="cls-17" x="355.01" y="214.85" width="3.71" height="0.86"/><rect class="cls-17" x="355.01" y="219.81" width="3.71" height="0.86"/><rect class="cls-17" x="355.01" y="224.77" width="3.71" height="0.86"/><rect class="cls-17" x="355.01" y="229.74" width="3.71" height="0.86"/><rect class="cls-17" x="355.01" y="234.7" width="3.71" height="0.86"/><rect class="cls-17" x="355.01" y="239.66" width="3.71" height="0.86"/><rect class="cls-17" x="355.01" y="244.62" width="3.71" height="0.86"/><rect class="cls-17" x="355.01" y="249.59" width="3.71" height="0.86"/><rect class="cls-17" x="355.01" y="254.55" width="3.71" height="0.86"/><rect class="cls-17" x="355.01" y="258.99" width="3.71" height="0.86"/><rect class="cls-17" x="355.01" y="263.95" width="3.71" height="0.86"/><rect class="cls-17" x="355.01" y="268.92" width="3.71" height="0.86"/><rect class="cls-17" x="355.01" y="273.88" width="3.71" height="0.86"/><rect class="cls-17" x="355.01" y="278.84" width="3.71" height="0.86"/><rect class="cls-17" x="355.01" y="283.8" width="3.71" height="0.86"/><rect class="cls-17" x="355.01" y="288.77" width="3.71" height="0.86"/><rect class="cls-17" x="355.01" y="293.73" width="3.71" height="0.86"/><rect class="cls-17" x="355.01" y="298.69" width="3.71" height="0.86"/><rect class="cls-17" x="355.01" y="303.65" width="3.71" height="0.86"/><rect class="cls-17" x="355.01" y="308.62" width="3.71" height="0.86"/><rect class="cls-17" x="355.01" y="313.58" width="3.71" height="0.86"/><rect class="cls-18" x="353.44" y="316.78" width="16.91" height="3.94"/><path class="cls-18" d="M361.89,178.49a4.21,4.21,0,1,0,4.21,4.21A4.2,4.2,0,0,0,361.89,178.49Zm0,7.49a3.29,3.29,0,1,1,3.28-3.28A3.28,3.28,0,0,1,361.89,186Z"/><path class="cls-18" d="M398.29,287.66h20.78a21.68,21.68,0,0,1,21.68,21.68v6.87a0,0,0,0,1,0,0H376.61a0,0,0,0,1,0,0v-6.87a21.68,21.68,0,0,1,21.68-21.68Z"/><rect class="cls-5" x="380.83" y="204.85" width="55.69" height="107.34" rx="4.62"/><path class="cls-6" d="M431.59,212.36v92.33a2.59,2.59,0,0,1-2.58,2.58H388.33a2.59,2.59,0,0,1-2.58-2.58V212.36a2.59,2.59,0,0,1,2.58-2.58h6a2,2,0,0,1,2,1.69v0a2.82,2.82,0,0,0,2.79,2.23h19.16a2.77,2.77,0,0,0,2.76-2.75v0a1.17,1.17,0,0,1,1.15-1.19H429a2.59,2.59,0,0,1,2.58,2.58Z"/><rect class="cls-7" x="390.76" y="218.71" width="35.31" height="7.67"/><rect class="cls-7" x="390.76" y="250.11" width="35.31" height="25.27"/><polygon class="cls-14" points="426.07 268.7 424.35 265.81 418.67 256.23 407.29 275.38 426.07 275.38 426.07 268.7"/><polygon class="cls-10" points="404.94 275.38 390.76 275.38 397.85 263.96 404.94 252.53 412.03 263.96 419.12 275.38 404.94 275.38"/><polygon class="cls-3" points="400.34 259.94 404.94 263.38 409.53 259.94 404.94 252.53 400.34 259.94"/><polygon class="cls-3" points="414.8 262.75 418.67 265.81 422.54 262.75 418.67 256.23 414.8 262.75"/><rect class="cls-9" x="390.76" y="230.47" width="35.31" height="3.88"/><rect class="cls-9" x="390.76" y="236.94" width="35.31" height="3.88"/><rect class="cls-9" x="390.76" y="243.42" width="35.31" height="3.88"/><rect class="cls-9" x="390.76" y="278.88" width="15.8" height="3.88"/><rect class="cls-9" x="390.76" y="285.72" width="15.8" height="3.88"/><rect class="cls-9" x="410.19" y="278.88" width="15.88" height="3.88"/><rect class="cls-9" x="410.19" y="285.72" width="15.88" height="3.88"/><rect class="cls-9" x="410.19" y="292.36" width="15.88" height="3.88"/><rect class="cls-9" x="390.76" y="292.36" width="15.8" height="3.88"/><path class="cls-5" d="M425.75,212.29a.89.89,0,0,1-1.78,0,.89.89,0,1,1,1.78,0Z"/><circle class="cls-5" cx="428.19" cy="212.29" r="0.89"/><path class="cls-15" d="M431.59,212.36v92.33a2.59,2.59,0,0,1-2.58,2.58H388.33a2.57,2.57,0,0,1-1.45-.45l44.35-95.77A2.55,2.55,0,0,1,431.59,212.36Z"/><path class="cls-16" d="M394.42,300.66h28.52a17.81,17.81,0,0,1,17.81,17.81v2.25a0,0,0,0,1,0,0H376.61a0,0,0,0,1,0,0v-2.25A17.81,17.81,0,0,1,394.42,300.66Z"/><rect class="cls-18" x="376.61" y="316.22" width="64.14" height="4.5"/><path class="cls-1" d="M136.15,193a23.48,23.48,0,0,1-4.92,3.78,23.82,23.82,0,0,1-23.86,0c-.53-.3-1.05-.63-1.57-1l-1.39,1.39,0,0V157.61A23.83,23.83,0,0,1,136.15,193Z"/><rect class="cls-5" x="78.37" y="182.39" width="8.7" height="47.54" transform="translate(170.01 1.89) rotate(45)"/><rect class="cls-9" x="92.22" y="188.04" width="8.57" height="8.7" transform="translate(-107.77 124.58) rotate(-45)"/><rect class="cls-9" x="65.42" y="217.44" width="3.35" height="8.7" transform="translate(-137.18 112.41) rotate(-45)"/><rect class="cls-1" x="65.67" y="218.03" width="1.67" height="8.7" transform="translate(-137.76 112.15) rotate(-45)"/><path class="cls-1" d="M102.61,192.43l-2.22,2.22A23.25,23.25,0,0,1,97,191.86a23.8,23.8,0,0,1-2.79-3.36l2.22-2.22Z"/><circle class="cls-5" cx="115.49" cy="173.4" r="23.83"/><path class="cls-7" d="M133.18,174c0,.4,0,.79-.08,1.19a17.65,17.65,0,0,1-2.06,6.67c-.1.16-.19.33-.29.5a17.37,17.37,0,0,1-2.28,3.06c-.15.16-.3.32-.46.47a15.92,15.92,0,0,1-1.3,1.18c-.34.28-.68.54-1,.79l-.23.16a17.62,17.62,0,0,1-3.43,1.81A18.17,18.17,0,0,1,117.3,191a17.68,17.68,0,0,1-13-3.91,15.92,15.92,0,0,1-1.3-1.18c-.16-.15-.31-.31-.46-.47a17.86,17.86,0,0,1-2.57-3.56v0a17.72,17.72,0,0,1-2-6c0-.37-.09-.74-.12-1.12s0-.5,0-.76V174a18.14,18.14,0,0,1,.58-5.14c0-.08.05-.15.07-.22.1-.36.21-.71.33-1.06a17.69,17.69,0,0,1,1.32-2.91,18,18,0,0,1,2.87-3.76l.1-.1.61-.58a17.74,17.74,0,0,1,23.61,0c.25.22.49.45.72.68a18,18,0,0,1,2.87,3.76l.32.58a17.82,17.82,0,0,1,1.39,3.61A16.33,16.33,0,0,1,133,171,17,17,0,0,1,133.18,174Z"/><path class="cls-15" d="M133.18,174c0,.4,0,.79-.08,1.19a17.65,17.65,0,0,1-2.06,6.67c-.1.16-.19.33-.29.5a17.37,17.37,0,0,1-2.28,3.06c-.15.16-.3.32-.46.47a15.92,15.92,0,0,1-1.3,1.18c-.34.28-.68.54-1,.79l-.23.16a17.62,17.62,0,0,1-3.43,1.81A18.17,18.17,0,0,1,117.3,191a17.68,17.68,0,0,1-13-3.91,15.92,15.92,0,0,1-1.3-1.18c-.16-.15-.31-.31-.46-.47a17.86,17.86,0,0,1-2.57-3.56v0l31.27-16.66a17.82,17.82,0,0,1,1.39,3.61A16.33,16.33,0,0,1,133,171,17,17,0,0,1,133.18,174Z"/><path class="cls-1" d="M324.64,279.37h-9.35l.95-2.78v0l.62-1.83a3.25,3.25,0,0,1,3.56-2.27h0a3.24,3.24,0,0,1,2.62,2.27l.63,1.83v0Z"/><path class="cls-19" d="M336.68,320.46a3,3,0,0,1-1.23.26H307.94a3.46,3.46,0,0,1-3.09-4.67l1.27-3.74,0-.05,1.53-4.51.06-.16.73-2.15.59-1.74,1.6-4.71,1-3.05.29-.85.5-1.47.74-2.19.36-1.05,1.32-3.89,1.53-4.49.08-.23,1.46-4.28v-.05l.62-1.83a3.26,3.26,0,0,1,3.55-2.27h0a3.24,3.24,0,0,1,2.63,2.26l.63,1.83v.05l1.46,4.28.07.23,1.53,4.49,1.33,3.89.35,1.05.75,2.19.5,1.47.29.85,1,3.05,1.61,4.71.59,1.74.73,2.15,0,.16,1.54,4.51v.05l1.28,3.74A3.55,3.55,0,0,1,336.68,320.46Z"/><path class="cls-20" d="M348.16,320.72H295.22a8.45,8.45,0,0,1,8.46-8.46h36a8.47,8.47,0,0,1,7,3.64A8.38,8.38,0,0,1,348.16,320.72Z"/><polygon class="cls-6" points="326.95 282 316.43 282 316.51 281.77 317.96 277.49 325.42 277.49 326.88 281.77 326.95 282"/><polygon class="cls-6" points="331.7 295.94 311.69 295.94 311.98 295.1 312.48 293.62 313.22 291.43 330.16 291.43 330.91 293.62 331.41 295.1 331.7 295.94"/><polygon class="cls-6" points="337.25 312.26 306.14 312.26 307.67 307.75 335.71 307.75 337.25 312.26"/><polygon class="cls-1" points="337.25 312.26 306.14 312.26 307.67 307.75 307.73 307.59 308.46 305.44 334.93 305.44 335.66 307.59 335.71 307.75 337.25 312.26"/><path class="cls-1" d="M348.16,320.72H295.22a8.38,8.38,0,0,1,1.51-4.82h49.93A8.38,8.38,0,0,1,348.16,320.72Z"/></g></svg>